<?xml version="1.0" encoding="UTF-8"?>
<svg version="1.1" xmlns="http://www.w3.org/2000/svg" width="634" height="647">
<path d="M0 0 C1.71751465 0.29801514 1.71751465 0.29801514 3.46972656 0.60205078 C28.98527 5.18167575 53.29551391 12.52888798 77 23 C77.80453613 23.35143066 78.60907227 23.70286133 79.43798828 24.06494141 C104.53725734 35.1279943 128.18676711 50.13766287 149 68 C149.98871094 68.80566406 150.97742188 69.61132812 151.99609375 70.44140625 C159.84377349 76.89289474 167.11483568 83.90141886 174.3125 91.0625 C175.23135986 91.97217529 176.15021973 92.88185059 177.09692383 93.8190918 C183.15651213 99.90603715 188.66187051 106.27614554 194 113 C194.90526685 114.0995417 195.81239527 115.19755788 196.72265625 116.29296875 C209.91659894 132.61469084 221.3100444 150.39778819 231 169 C231.33902344 169.63711914 231.67804687 170.27423828 232.02734375 170.93066406 C249.53939386 203.89352103 260.76655194 240.01707694 266.25 276.875 C266.40122314 277.8753125 266.55244629 278.875625 266.70825195 279.90625 C269.72578254 301.87918871 270.33289727 324.04891792 270.26074219 346.19775391 C270.25165804 349.51883745 270.25609018 352.8393074 270.26788712 356.16034126 C270.27688189 359.40117614 270.27058117 362.64197351 270.265625 365.8828125 C270.26967346 367.05578888 270.27372192 368.22876526 270.27789307 369.43728638 C270.22771435 378.27314899 269.28223055 386.40341837 265.99609375 394.66015625 C265.3932959 396.18854126 265.3932959 396.18854126 264.77832031 397.74780273 C264.33584961 398.84165283 263.89337891 399.93550293 263.4375 401.0625 C262.96280273 402.25367432 262.48810547 403.44484863 261.99902344 404.67211914 C256.97142405 417.24716694 251.74614313 429.74303734 246.54052734 442.24511719 C241.82295033 453.57779477 237.16125276 464.9311006 232.5625 476.3125 C227.13459512 489.74172131 221.67562879 503.15776787 216.1875 516.5625 C215.81168793 517.48047363 215.43587585 518.39844727 215.04867554 519.34423828 C213.51967001 523.07881927 211.99050266 526.81333392 210.46104431 530.54772949 C207.39716379 538.02877904 204.33594066 545.51091258 201.27716064 552.99404907 C199.39908604 557.58820534 197.51902746 562.18152712 195.63427734 566.77294922 C192.27738661 574.95499111 188.93393303 583.14115483 185.659729 591.35670471 C184.22635591 594.95008867 182.78251836 598.53922342 181.33770752 602.12802124 C180.66489298 603.80773436 179.99719455 605.48950767 179.33514404 607.17349243 C173.12277309 622.96949165 165.74731862 635.00334266 149.61328125 642.0546875 C139.752189 645.62177916 129.00650869 644.11180805 118.859375 642.609375 C116.73683192 642.31076209 114.61427267 642.01226415 112.49169922 641.71386719 C111.39307556 641.55640015 110.2944519 641.39893311 109.16253662 641.23669434 C85.49203237 637.86081837 61.83071421 634.94864805 38 633 C36.6687207 632.88881836 36.6687207 632.88881836 35.31054688 632.77539062 C-15.25508309 628.58249289 -67.09577708 627.75354256 -117.71087646 631.81640625 C-120.15796389 632.01266912 -122.60556132 632.201662 -125.05322266 632.390625 C-156.27187201 634.83415109 -187.49852759 638.23744271 -218.4296875 643.16015625 C-231.73673391 645.2510018 -243.09077838 644.23612446 -254.55859375 636.82421875 C-261.73546087 631.46166364 -266.14927037 625.35016402 -269.6328125 617.20703125 C-270.1399881 616.04319664 -270.1399881 616.04319664 -270.65740967 614.85585022 C-275.36867275 603.95874209 -279.79528743 592.94112957 -284.25 581.9375 C-285.21809235 579.55276228 -286.1865231 577.16816191 -287.15527344 574.78369141 C-289.13843089 569.90195985 -291.12039862 565.01974796 -293.1015625 560.13720703 C-297.46935617 549.37701075 -301.8595496 538.62596638 -306.25 527.875 C-307.07830826 525.84603702 -307.90659607 523.81706568 -308.73486328 521.78808594 C-313.82107139 509.32971229 -318.91239132 496.87343286 -324.00765991 484.41876221 C-325.11763525 481.70550263 -326.22740263 478.99215806 -327.3371582 476.27880859 C-330.73530409 467.97152993 -334.13631066 459.66544687 -337.54533386 451.36262512 C-352.04418816 416.04859315 -352.04418816 416.04859315 -358.5625 399.5 C-359.00972412 398.36691406 -359.45694824 397.23382813 -359.91772461 396.06640625 C-360.51725952 394.53306641 -360.51725952 394.53306641 -361.12890625 392.96875 C-361.46994385 392.09669922 -361.81098145 391.22464844 -362.16235352 390.32617188 C-363.83554531 385.67966315 -364.1397393 381.69499055 -364.17700195 376.72583008 C-364.18357315 375.99796799 -364.19014435 375.2701059 -364.19691467 374.52018738 C-364.21665369 372.10330063 -364.22833506 369.68647726 -364.23828125 367.26953125 C-364.24235678 366.4317835 -364.2464323 365.59403576 -364.25063133 364.73090172 C-364.27153182 360.26436996 -364.28579524 355.79786893 -364.29516602 351.33129883 C-364.30388644 347.7038418 -364.32441303 344.07678553 -364.35668945 340.44946289 C-365.01542345 264.73039932 -346.34803945 190.81297296 -301 129 C-300.58830566 128.43812988 -300.17661133 127.87625977 -299.75244141 127.29736328 C-281.38305297 102.4386701 -259.75067726 79.54567553 -235 61 C-233.82027764 60.10030613 -232.64059056 59.20056599 -231.4609375 58.30078125 C-190.87664362 27.63916357 -143.91984064 8.78173256 -94 0 C-93.00339355 -0.17934082 -92.00678711 -0.35868164 -90.97998047 -0.54345703 C-61.72773979 -5.57454266 -29.21984165 -5.09265327 0 0 Z " fill="#FDFCFC" transform="translate(364,3)"/>
<path d="M0 0 C1.71751465 0.29801514 1.71751465 0.29801514 3.46972656 0.60205078 C28.98527 5.18167575 53.29551391 12.52888798 77 23 C77.80453613 23.35143066 78.60907227 23.70286133 79.43798828 24.06494141 C104.53725734 35.1279943 128.18676711 50.13766287 149 68 C149.98871094 68.80566406 150.97742188 69.61132812 151.99609375 70.44140625 C159.84377349 76.89289474 167.11483568 83.90141886 174.3125 91.0625 C175.23135986 91.97217529 176.15021973 92.88185059 177.09692383 93.8190918 C183.15651213 99.90603715 188.66187051 106.27614554 194 113 C194.90526685 114.0995417 195.81239527 115.19755788 196.72265625 116.29296875 C209.91659894 132.61469084 221.3100444 150.39778819 231 169 C231.33902344 169.63711914 231.67804687 170.27423828 232.02734375 170.93066406 C249.53939386 203.89352103 260.76655194 240.01707694 266.25 276.875 C266.40122314 277.8753125 266.55244629 278.875625 266.70825195 279.90625 C269.72578254 301.87918871 270.33289727 324.04891792 270.26074219 346.19775391 C270.25165804 349.51883745 270.25609018 352.8393074 270.26788712 356.16034126 C270.27688189 359.40117614 270.27058117 362.64197351 270.265625 365.8828125 C270.26967346 367.05578888 270.27372192 368.22876526 270.27789307 369.43728638 C270.22771435 378.27314899 269.28223055 386.40341837 265.99609375 394.66015625 C265.3932959 396.18854126 265.3932959 396.18854126 264.77832031 397.74780273 C264.33584961 398.84165283 263.89337891 399.93550293 263.4375 401.0625 C262.96280273 402.25367432 262.48810547 403.44484863 261.99902344 404.67211914 C256.97142405 417.24716694 251.74614313 429.74303734 246.54052734 442.24511719 C241.82295033 453.57779477 237.16125276 464.9311006 232.5625 476.3125 C227.13459512 489.74172131 221.67562879 503.15776787 216.1875 516.5625 C215.81168793 517.48047363 215.43587585 518.39844727 215.04867554 519.34423828 C213.51967001 523.07881927 211.99050266 526.81333392 210.46104431 530.54772949 C207.39716379 538.02877904 204.33594066 545.51091258 201.27716064 552.99404907 C199.39908604 557.58820534 197.51902746 562.18152712 195.63427734 566.77294922 C192.27738661 574.95499111 188.93393303 583.14115483 185.659729 591.35670471 C184.22635591 594.95008867 182.78251836 598.53922342 181.33770752 602.12802124 C180.66489298 603.80773436 179.99719455 605.48950767 179.33514404 607.17349243 C173.12277309 622.96949165 165.74731862 635.00334266 149.61328125 642.0546875 C139.752189 645.62177916 129.00650869 644.11180805 118.859375 642.609375 C116.73683192 642.31076209 114.61427267 642.01226415 112.49169922 641.71386719 C111.39307556 641.55640015 110.2944519 641.39893311 109.16253662 641.23669434 C85.49203237 637.86081837 61.83071421 634.94864805 38 633 C36.6687207 632.88881836 36.6687207 632.88881836 35.31054688 632.77539062 C-15.25508309 628.58249289 -67.09577708 627.75354256 -117.71087646 631.81640625 C-120.15796389 632.01266912 -122.60556132 632.201662 -125.05322266 632.390625 C-156.27187201 634.83415109 -187.49852759 638.23744271 -218.4296875 643.16015625 C-231.73673391 645.2510018 -243.09077838 644.23612446 -254.55859375 636.82421875 C-261.73546087 631.46166364 -266.14927037 625.35016402 -269.6328125 617.20703125 C-270.1399881 616.04319664 -270.1399881 616.04319664 -270.65740967 614.85585022 C-275.36867275 603.95874209 -279.79528743 592.94112957 -284.25 581.9375 C-285.21809235 579.55276228 -286.1865231 577.16816191 -287.15527344 574.78369141 C-289.13843089 569.90195985 -291.12039862 565.01974796 -293.1015625 560.13720703 C-297.46935617 549.37701075 -301.8595496 538.62596638 -306.25 527.875 C-307.07830826 525.84603702 -307.90659607 523.81706568 -308.73486328 521.78808594 C-313.82107139 509.32971229 -318.91239132 496.87343286 -324.00765991 484.41876221 C-325.11763525 481.70550263 -326.22740263 478.99215806 -327.3371582 476.27880859 C-330.73530409 467.97152993 -334.13631066 459.66544687 -337.54533386 451.36262512 C-352.04418816 416.04859315 -352.04418816 416.04859315 -358.5625 399.5 C-359.00972412 398.36691406 -359.45694824 397.23382813 -359.91772461 396.06640625 C-360.51725952 394.53306641 -360.51725952 394.53306641 -361.12890625 392.96875 C-361.46994385 392.09669922 -361.81098145 391.22464844 -362.16235352 390.32617188 C-363.83554531 385.67966315 -364.1397393 381.69499055 -364.17700195 376.72583008 C-364.18357315 375.99796799 -364.19014435 375.2701059 -364.19691467 374.52018738 C-364.21665369 372.10330063 -364.22833506 369.68647726 -364.23828125 367.26953125 C-364.24235678 366.4317835 -364.2464323 365.59403576 -364.25063133 364.73090172 C-364.27153182 360.26436996 -364.28579524 355.79786893 -364.29516602 351.33129883 C-364.30388644 347.7038418 -364.32441303 344.07678553 -364.35668945 340.44946289 C-365.01542345 264.73039932 -346.34803945 190.81297296 -301 129 C-300.58830566 128.43812988 -300.17661133 127.87625977 -299.75244141 127.29736328 C-281.38305297 102.4386701 -259.75067726 79.54567553 -235 61 C-233.82027764 60.10030613 -232.64059056 59.20056599 -231.4609375 58.30078125 C-190.87664362 27.63916357 -143.91984064 8.78173256 -94 0 C-93.00339355 -0.17934082 -92.00678711 -0.35868164 -90.97998047 -0.54345703 C-61.72773979 -5.57454266 -29.21984165 -5.09265327 0 0 Z M-85 13 C-86.55750977 13.22598877 -86.55750977 13.22598877 -88.14648438 13.45654297 C-120.3298484 18.31203311 -151.44309658 27.73738087 -180.22753906 43.06738281 C-181.9571197 43.97743764 -183.708939 44.84482538 -185.4609375 45.7109375 C-206.23771784 56.21398981 -225.68270562 70.22074669 -242.79296875 85.9765625 C-244.72130517 87.74448863 -246.68847978 89.43846046 -248.6875 91.125 C-259.0679589 100.19735229 -268.5021091 110.16068636 -277 121 C-278.43659311 122.70909604 -279.8741215 124.41740628 -281.3125 126.125 C-326.28227229 181.32227259 -349.83555045 251.91013459 -350.2734375 322.71875 C-350.27876118 323.53794418 -350.28408485 324.35713837 -350.28956985 325.20115662 C-350.31604654 329.52911431 -350.3355088 333.85704557 -350.35009766 338.18505859 C-350.36346003 341.72861396 -350.39139238 345.27159673 -350.43212891 348.81494141 C-350.48183268 353.14299099 -350.50626066 357.47052076 -350.51332474 361.79884338 C-350.51996355 363.42848947 -350.53498822 365.05812731 -350.55921555 366.68760681 C-350.71249434 377.60935564 -349.3799514 385.8572785 -345 396 C-344.36324891 397.61593886 -343.72876188 399.23277327 -343.09741211 400.85083008 C-342.49391811 402.32504263 -341.8871732 403.79792815 -341.27734375 405.26953125 C-340.93957413 406.09237106 -340.6018045 406.91521088 -340.25379944 407.76298523 C-339.1512288 410.44734393 -338.04432484 413.12989298 -336.9375 415.8125 C-336.14481131 417.74073295 -335.3525028 419.66912223 -334.56054688 421.59765625 C-333.31665662 424.62657782 -332.072525 427.65539789 -330.82723999 430.68374634 C-326.61730668 440.92231626 -322.43476403 451.17199666 -318.25485229 461.42285156 C-316.15264947 466.57787272 -314.0490464 471.73232226 -311.9453125 476.88671875 C-311.53137741 477.90091888 -311.11744232 478.91511902 -310.69096375 479.96005249 C-305.68586594 492.22162481 -300.67192785 504.47958001 -295.6550293 516.73632812 C-294.91715038 518.53906063 -294.17927602 520.341795 -293.44140625 522.14453125 C-293.07703964 523.03471954 -292.71267303 523.92490784 -292.33726501 524.84207153 C-289.68876896 531.31385136 -287.04482676 537.78748176 -284.40234375 544.26171875 C-281.02601536 552.53363394 -277.64223826 560.80246102 -274.25061035 569.06811523 C-272.08949368 574.3362153 -269.93748006 579.60791414 -267.79203796 584.88241577 C-266.43800114 588.20529449 -265.07564289 591.52471454 -263.71102905 594.84326172 C-263.08126811 596.37943766 -262.45486016 597.91699343 -261.83218384 599.45605469 C-256.25385603 614.41701167 -256.25385603 614.41701167 -245.375 625.5 C-244.64023438 625.9640625 -243.90546875 626.428125 -243.1484375 626.90625 C-233.19614767 631.97287028 -219.4691189 628.75731668 -208.9375 627.1875 C-206.29728212 626.81562903 -203.65688339 626.44631241 -201.015625 626.08203125 C-200.34947678 625.98966187 -199.68332855 625.89729248 -198.99699402 625.80212402 C-155.02214509 619.77214027 -110.35218178 617.71260469 -66 617 C-64.91026886 616.9819632 -64.91026886 616.9819632 -63.79852295 616.96356201 C-3.7823966 616.01322931 57.2725905 618.71569544 116.67382812 627.54614258 C134.07298702 630.37667942 134.07298702 630.37667942 150.69140625 625.875 C157.332612 620.48112731 161.23546293 614.31681152 164.34765625 606.44140625 C164.72213394 605.53177628 165.09661163 604.6221463 165.48243713 603.68495178 C166.2715319 601.76295402 167.0535936 599.83805508 167.82891846 597.91046143 C168.97111495 595.07178734 170.13226406 592.2417048 171.30029297 589.41357422 C173.69903318 583.59617022 176.06898356 577.76725986 178.4375 571.9375 C179.31146102 569.7906798 180.18565194 567.64395318 181.06005859 565.49731445 C182.39999663 562.20774545 183.73980748 558.91812539 185.07891846 555.6282196 C189.41482469 544.97607396 193.76832698 534.33116515 198.125 523.6875 C198.86794537 521.87191797 199.61086526 520.05632551 200.35375977 518.24072266 C202.93695294 511.92765109 205.52060044 505.61476548 208.10424805 499.30187988 C213.33529671 486.52020264 218.56493704 473.73795072 223.79187012 460.95458984 C224.61806433 458.93405789 225.44432048 456.91355126 226.27062988 454.89306641 C238.79137957 424.31560079 238.79137957 424.31560079 251.1875 393.6875 C251.7753125 392.23114136 251.7753125 392.23114136 252.375 390.74536133 C252.71917969 389.88450928 253.06335938 389.02365723 253.41796875 388.13671875 C253.70438232 387.42217529 253.9907959 386.70763184 254.28588867 385.97143555 C255.78758591 381.82572437 256.13002211 378.21444281 256.14526367 373.79223633 C256.15483345 371.90164238 256.15483345 371.90164238 256.16459656 369.97285461 C256.16612858 368.59258055 256.16724074 367.21230597 256.16796875 365.83203125 C256.17118983 364.39548206 256.17455451 362.95893318 256.17805481 361.52238464 C256.18404995 358.4969304 256.18589511 355.47150468 256.18530273 352.44604492 C256.18522253 349.39455093 256.19198917 346.34321042 256.20581055 343.29174805 C256.31143508 319.58906027 255.83668322 296.1000414 251.6875 272.6875 C251.35830566 270.79100708 251.35830566 270.79100708 251.02246094 268.85620117 C237.99154312 195.69011432 197.85515954 122.42726296 138 77 C136.74091285 76.00290955 135.48321308 75.0040658 134.2265625 74.00390625 C73.53840803 26.11252366 -7.97670329 1.78234689 -85 13 Z " fill="#07389B" transform="translate(364,3)"/>
<path d="M0 0 C3.14806425 0.0107135 6.29555655 0.00004882 9.44360352 -0.01269531 C21.18830534 -0.0212315 32.60340168 0.51224276 44.21899414 2.26074219 C45.22518799 2.40672852 46.23138184 2.55271484 47.26806641 2.703125 C60.61955476 4.74964229 73.41919666 7.98268248 86.21899414 12.26074219 C87.08459961 12.54401367 87.95020508 12.82728516 88.84204102 13.11914062 C115.77844959 22.02251892 141.06054637 35.50299313 163.21899414 53.26074219 C164.19223633 54.0303125 165.16547852 54.79988281 166.16821289 55.59277344 C181.10963641 67.66923829 195.09951124 81.56710837 206.21899414 97.26074219 C206.68821289 97.91268555 207.15743164 98.56462891 207.64086914 99.23632812 C237.85075658 141.55004546 248.43320693 187.78434659 247.21899414 239.26074219 C246.88899414 239.26074219 246.55899414 239.26074219 246.21899414 239.26074219 C246.13262695 238.10703125 246.04625977 236.95332031 245.95727539 235.76464844 C241.14923031 177.71128402 214.92394854 126.42400014 171.41821289 87.77246094 C168.73241388 85.53230561 165.99864453 83.38324697 163.21899414 81.26074219 C162.68790039 80.84791992 162.15680664 80.43509766 161.60961914 80.00976562 C135.03686446 59.42502275 105.22026733 45.91909391 73.21899414 36.26074219 C72.41171875 36.01356445 71.60444336 35.76638672 70.77270508 35.51171875 C53.46744988 30.32260149 34.26729528 27.7245101 16.21899414 27.26074219 C15.01484863 27.22207031 15.01484863 27.22207031 13.78637695 27.18261719 C-9.63582455 26.50883937 -33.02219108 28.61522301 -55.78100586 34.26074219 C-56.53430176 34.43831055 -57.28759766 34.61587891 -58.0637207 34.79882812 C-99.59206908 44.59382642 -137.87809479 64.80867202 -168.78100586 94.26074219 C-170.14926389 95.43530852 -171.5236267 96.60282856 -172.90600586 97.76074219 C-212.05342322 131.89340774 -231.51688613 184.01706474 -236.78100586 234.26074219 C-237.11100586 234.26074219 -237.44100586 234.26074219 -237.78100586 234.26074219 C-239.21788835 171.42844968 -219.24863565 117.92077019 -175.89038086 72.17871094 C-169.88587561 66.04553771 -163.53531354 60.54792566 -156.78100586 55.26074219 C-155.79616211 54.47054687 -154.81131836 53.68035156 -153.79663086 52.86621094 C-110.12650258 18.13799575 -55.59673232 -0.22461581 0 0 Z " fill="#030303" transform="translate(312.781005859375,72.7392578125)"/>
<path d="M0 0 C2 1 2 1 3.17333984 4.02832031 C3.61040138 5.3757302 4.03897323 6.72591113 4.4609375 8.078125 C4.6927774 8.80054382 4.92461731 9.52296265 5.16348267 10.26727295 C5.90777554 12.59264542 6.64142231 14.92122779 7.375 17.25 C7.86130022 18.77365436 8.3482721 20.29709453 8.8359375 21.8203125 C10.97105101 28.50576708 13.06834554 35.20161862 15.1171875 41.9140625 C17.17216384 48.62719566 19.42286918 55.26819534 21.70703125 61.90625 C22.15369141 63.22496094 22.15369141 63.22496094 22.609375 64.5703125 C22.87717773 65.35164551 23.14498047 66.13297852 23.42089844 66.93798828 C24 69 24 69 24 72 C48.75 72 73.5 72 99 72 C93.37868481 77.62131519 93.37868481 77.62131519 90.42578125 79.65625 C89.76779541 80.11443115 89.10980957 80.5726123 88.43188477 81.04467773 C87.73248779 81.52493408 87.03309082 82.00519043 86.3125 82.5 C84.78582443 83.56289217 83.25980389 84.62672567 81.734375 85.69140625 C80.95126953 86.23684082 80.16816406 86.78227539 79.36132812 87.34423828 C74.81833345 90.52978314 70.32894059 93.78960986 65.84130859 97.05249023 C61.88419249 99.92737348 57.9094527 102.770974 53.8984375 105.5703125 C52.65308228 106.44731812 52.65308228 106.44731812 51.38256836 107.34204102 C49.78536551 108.46590407 48.18221919 109.58138033 46.57250977 110.68725586 C45.85635498 111.19393799 45.1402002 111.70062012 44.40234375 112.22265625 C43.76804443 112.66359619 43.13374512 113.10453613 42.48022461 113.55883789 C40.60926902 115.38041976 40.37319417 116.42504333 40 119 C40.45961556 121.42693622 40.45961556 121.42693622 41.36767578 123.98950195 C41.69196564 124.98186356 42.01625549 125.97422516 42.35037231 126.99665833 C42.71170258 128.06639389 43.07303284 129.13612946 43.4453125 130.23828125 C43.81220184 131.35124069 44.17909119 132.46420013 44.55709839 133.61088562 C45.73666774 137.18140015 46.93061742 140.74691671 48.125 144.3125 C48.90719974 146.67221143 49.68846027 149.03223442 50.46875 151.39257812 C53.18054176 159.58347051 55.904456 167.77025592 58.67089844 175.94287109 C59.02908157 177.00479927 59.02908157 177.00479927 59.39450073 178.08818054 C59.99973397 179.88025342 60.60880677 181.67102838 61.21826172 183.46166992 C62 186 62 186 62 188 C59.22924752 186.6865119 56.78020408 185.22447036 54.3046875 183.41796875 C53.59836182 182.90500244 52.89203613 182.39203613 52.16430664 181.86352539 C51.40883545 181.31043701 50.65336426 180.75734863 49.875 180.1875 C48.24617393 179.00249395 46.61726542 177.8176012 44.98828125 176.6328125 C44.1576416 176.02727539 43.32700195 175.42173828 42.47119141 174.79785156 C40.14566367 173.10597385 37.81470754 171.4220195 35.48046875 169.7421875 C29.21145489 165.23035009 22.94826075 160.71434435 16.75 156.10546875 C15.88366943 155.462146 15.01733887 154.81882324 14.12475586 154.15600586 C12.44845991 152.90904612 10.77468472 151.65868874 9.10375977 150.40454102 C7.97151978 149.56234009 7.97151978 149.56234009 6.81640625 148.703125 C6.15068604 148.20458008 5.48496582 147.70603516 4.79907227 147.19238281 C2.90194756 145.82258614 2.90194756 145.82258614 0 145 C-1.78512774 145.84461064 -1.78512774 145.84461064 -3.5625 147.25390625 C-4.26697266 147.77146484 -4.97144531 148.28902344 -5.69726562 148.82226562 C-6.83711914 149.68368164 -6.83711914 149.68368164 -8 150.5625 C-8.79599609 151.15095703 -9.59199219 151.73941406 -10.41210938 152.34570312 C-12.09826705 153.59348621 -13.78113242 154.84572867 -15.4609375 156.10205078 C-18.67696916 158.50603445 -21.91012066 160.88628328 -25.14404297 163.26611328 C-26.71676916 164.42357457 -28.2887079 165.58210658 -29.85986328 166.74169922 C-35.51413425 170.91445087 -41.18514083 175.0634006 -46.875 179.1875 C-47.61814453 179.72826172 -48.36128906 180.26902344 -49.12695312 180.82617188 C-52.66801029 183.38632678 -56.19923499 185.8313282 -60 188 C-59.40530077 182.1625576 -57.77581802 177.11421022 -55.75 171.625 C-53.51518053 165.41893011 -51.40585218 159.22641756 -49.625 152.875 C-47.11924544 143.97064175 -44.0327579 135.27319485 -40.94580078 126.55615234 C-40.37514893 124.93700928 -40.37514893 124.93700928 -39.79296875 123.28515625 C-39.4477417 122.31457275 -39.10251465 121.34398926 -38.74682617 120.34399414 C-37.89880787 118.09241314 -37.89880787 118.09241314 -38 116 C-40.42280072 114.144564 -42.85629382 112.40477479 -45.375 110.6875 C-46.94855727 109.595975 -48.52145334 108.50349632 -50.09375 107.41015625 C-50.9084375 106.84570801 -51.723125 106.28125977 -52.5625 105.69970703 C-56.36324378 103.0493887 -60.12136215 100.34145939 -63.875 97.625 C-64.6086377 97.09487305 -65.34227539 96.56474609 -66.09814453 96.01855469 C-72.6422263 91.27959017 -79.14546477 86.48540554 -85.63232422 81.66845703 C-88.89231135 79.2543044 -92.1459639 76.8727373 -95.546875 74.66015625 C-96.35640625 74.11230469 -97.1659375 73.56445312 -98 73 C-98 72.67 -98 72.34 -98 72 C-73.25 71.67 -48.5 71.34 -23 71 C-17.16422914 52.90911035 -11.33499957 34.82200143 -5.65307617 16.68334961 C-4.89381847 14.26111284 -4.13256894 11.83950914 -3.37109375 9.41796875 C-3.03216347 8.33252022 -3.03216347 8.33252022 -2.68638611 7.22514343 C-1.11316803 2.22633606 -1.11316803 2.22633606 0 0 Z " fill="#013499" transform="translate(316,112)"/>
<path d="M0 0 C4.52392432 2.14523724 8.37941183 5.17209564 12.39941406 8.13134766 C13.2746875 8.75654297 14.14996094 9.38173828 15.05175781 10.02587891 C15.88320313 10.63560547 16.71464844 11.24533203 17.57128906 11.87353516 C18.33022461 12.42638184 19.08916016 12.97922852 19.87109375 13.54882812 C22.00390694 15.596727 22.20833673 16.35685328 22.64941406 19.25634766 C22.55618299 21.76021281 22.39728997 24.2068844 22.16796875 26.69824219 C22.10465866 27.44400513 22.04134857 28.18976807 21.97612 28.95812988 C21.76417905 31.43573238 21.54275378 33.91239224 21.32128906 36.38916016 C21.16953183 38.14040249 21.0183586 39.89169553 20.86773682 41.64303589 C20.46706648 46.28297985 20.05835811 50.92218254 19.64801025 55.5612793 C19.24390711 60.14541428 18.8473692 64.73020182 18.45019531 69.31494141 C17.60110443 79.09910825 16.7413368 88.88231658 15.87802124 98.66523743 C15.6490199 101.26081518 15.4202885 103.85641659 15.19165039 106.45202637 C14.34586757 116.05361109 13.49865139 125.65506778 12.64941406 135.25634766 C12.85247665 134.37834503 13.05553925 133.50034241 13.26475525 132.59573364 C17.00784 116.41735792 20.8341893 100.27078295 24.91113281 84.17285156 C26.18515385 79.13996288 27.44990694 74.10476086 28.71191406 69.06884766 C28.95917236 68.08223145 29.20643066 67.09561523 29.46118164 66.07910156 C31.56259103 57.66374491 33.58035222 49.22968144 35.57128906 40.78759766 C36.56078551 36.60099173 37.59704066 32.42757316 38.64941406 28.25634766 C40.29915172 29.27085922 41.9439496 30.29340344 43.58691406 31.31884766 C44.96169922 32.1715625 44.96169922 32.1715625 46.36425781 33.04150391 C50.62209054 35.91212359 54.6281381 39.0660571 58.64941406 42.25634766 C54.76967559 57.44280503 50.76546644 72.58297474 46.5637207 87.68359375 C44.49729233 95.12754038 42.50695689 102.58591889 40.58691406 110.06884766 C38.58236489 117.8631066 36.42292858 125.5988236 34.14941406 133.31884766 C33.56600552 135.30971104 32.98267183 137.30059635 32.39941406 139.29150391 C31.51705832 142.30308693 30.63234505 145.31384568 29.73925781 148.32226562 C28.86092184 151.29615533 28.00308843 154.2752986 27.14941406 157.25634766 C26.88193359 158.14588135 26.61445313 159.03541504 26.33886719 159.9519043 C25.15979145 164.13099287 24.46414494 167.32289496 25.24316406 171.63134766 C25.64941406 175.25634766 25.64941406 175.25634766 24.01660156 177.61572266 C16.14392282 183.07203465 7.8320005 183.63449403 -1.47558594 183.69384766 C-2.3932373 183.70383789 -3.31088867 183.71382812 -4.25634766 183.72412109 C-11.9182797 183.62808972 -21.35739782 182.47622118 -27.35058594 177.25634766 C-28.19239951 174.43025922 -28.75684553 172.38563909 -27.73876953 169.55566406 C-27.13584042 165.98435188 -28.29291449 162.82204563 -29.26464844 159.40478516 C-29.47616547 158.63188141 -29.6876825 157.85897766 -29.90560913 157.06265259 C-30.58653345 154.58294514 -31.2808193 152.1072082 -31.97558594 149.63134766 C-32.42048183 148.01961265 -32.86450056 146.40763524 -33.30761719 144.79541016 C-34.42101983 140.75305435 -35.54661493 136.71420611 -36.67559814 132.67617798 C-37.34880009 130.26274993 -38.01725165 127.84805699 -38.68408203 125.43286133 C-40.95704562 117.20478637 -43.28910784 109.0002534 -45.72558594 100.81884766 C-48.6452497 90.91843066 -51.29197715 80.96165954 -53.8503418 70.96240234 C-56.2239373 61.69014282 -58.73872788 52.46405002 -61.35058594 43.25634766 C-57.57239259 39.24698378 -53.55474001 36.08364323 -49.03808594 32.94384766 C-48.39291016 32.48945313 -47.74773437 32.03505859 -47.08300781 31.56689453 C-45.50861452 30.45898814 -43.93002947 29.35704241 -42.35058594 28.25634766 C-39.35933322 31.24760037 -39.06228462 34.99287834 -38.16308594 39.00634766 C-37.95095459 39.92448242 -37.73882324 40.84261719 -37.52026367 41.78857422 C-37.04873898 43.83056004 -36.58024172 45.87324655 -36.11425781 47.91650391 C-34.73439133 53.95121408 -33.32083572 59.9780931 -31.91308594 66.00634766 C-31.61515137 67.28493652 -31.3172168 68.56352539 -31.01025391 69.88085938 C-26.90750649 87.47580374 -22.69774722 105.04136566 -18.26635742 122.55664062 C-18.02989502 123.4939502 -17.79343262 124.43125977 -17.54980469 125.39697266 C-17.34186279 126.21713867 -17.1339209 127.03730469 -16.91967773 127.88232422 C-16.332906 130.33010128 -15.83823702 132.78715442 -15.35058594 135.25634766 C-16.11345455 126.02460802 -16.9005318 116.79501102 -17.69155693 107.56565285 C-18.07119137 103.13511592 -18.45006753 98.70451411 -18.82910156 94.27392578 C-19.30700348 88.68836347 -19.78510741 83.10281865 -20.26391602 77.51733398 C-20.34188227 76.6073465 -20.41984852 75.69735901 -20.50017738 74.75979614 C-20.65654302 72.9355409 -20.81309592 71.1113017 -20.9698391 69.28707886 C-21.35201069 64.83260357 -21.72958046 60.37783083 -22.09707642 55.92211914 C-22.72295637 48.36522665 -23.3750209 40.8214245 -24.22119141 33.28564453 C-24.34277115 32.12288498 -24.46435089 30.96012543 -24.58961487 29.76213074 C-24.80923767 27.6899736 -25.05261307 25.62011211 -25.32627869 23.55439758 C-25.96072617 17.29021513 -25.96072617 17.29021513 -24.21987915 14.34039307 C-21.2911741 11.07897465 -18.0254834 9.08324793 -14.11035156 7.17529297 C-11.43954435 5.78060396 -9.20052035 3.87917417 -6.85058594 2.00634766 C-3.02273929 -0.95630078 -3.02273929 -0.95630078 0 0 Z " fill="#D60202" transform="translate(317.3505859375,265.74365234375)"/>
<path d="M0 0 C-3.03963821 12.66830582 -6.5321368 25.19510505 -10.07666016 37.72998047 C-11.56024035 42.98409816 -13.02955144 48.24219533 -14.5 53.5 C-15.08197701 55.57814019 -15.66400837 57.65626516 -16.24609375 59.734375 C-17.4273041 63.95270074 -18.60681242 68.17149767 -19.78515625 72.390625 C-22.73695712 82.95496494 -25.71019252 93.51237043 -28.73291016 104.05664062 C-31.56872027 113.9623219 -34.33730553 123.88674226 -37.10888672 133.81054688 C-38.57024841 139.04102059 -40.0352874 144.27046387 -41.5 149.5 C-42.08335145 151.58332826 -42.66668477 153.6666616 -43.25 155.75 C-46.75 168.25 -46.75 168.25 -47.625 171.37475586 C-48.20850236 173.45885568 -48.7918356 175.54300285 -49.375 177.62719727 C-50.82936659 182.82420423 -52.28662844 188.02036467 -53.75 193.21484375 C-54.33358795 195.28899088 -54.91692107 197.36320972 -55.5 199.4375 C-55.78875 200.46472168 -56.0775 201.49194336 -56.375 202.55029297 C-58.17178603 208.9683886 -59.91475459 215.39892626 -61.62597656 221.84033203 C-64.22618397 231.61217295 -66.89446133 241.36188808 -69.75 251.0625 C-70.03166016 252.05072754 -70.31332031 253.03895508 -70.60351562 254.05712891 C-70.87357422 254.95737793 -71.14363281 255.85762695 -71.421875 256.78515625 C-71.65487305 257.57801025 -71.88787109 258.37086426 -72.12792969 259.18774414 C-72.41571289 259.78578857 -72.70349609 260.38383301 -73 261 C-76.58456422 262.19485474 -80.00294892 262.33444942 -83.7421875 262.54296875 C-85.36368594 262.64358896 -86.98510235 262.74553768 -88.60644531 262.84863281 C-89.89307068 262.93014587 -89.89307068 262.93014587 -91.20568848 263.01330566 C-130.87410617 265.60199328 -175.49752418 270.34502945 -210.46020508 290.59936523 C-211.94457908 291.45197493 -213.46933243 292.23360177 -215 293 C-215.66 292.67 -216.32 292.34 -217 292 C-184.10031404 260.19365708 -128.19352992 253.54857374 -85 247 C-84.53944214 245.23293701 -84.53944214 245.23293701 -84.06958008 243.43017578 C-82.90614213 238.96788562 -81.74080269 234.50609372 -80.57495117 230.04443359 C-80.07510098 228.13050193 -79.57573475 226.21644379 -79.0769043 224.30224609 C-75.98891219 212.45405884 -72.82388564 200.63272507 -69.51626587 188.84393311 C-68.38894139 184.81749817 -67.28741502 180.78399131 -66.1875 176.75 C-65.94523682 175.8621582 -65.70297363 174.97431641 -65.45336914 174.05957031 C-63.0720116 165.30783958 -60.74311302 156.54218907 -58.41293335 147.7767334 C-56.30012096 139.83183686 -54.15725218 131.89784705 -51.93334961 123.98339844 C-49.88916995 116.67344585 -47.94875194 109.33581845 -46 102 C-43.66787254 93.22177496 -41.31906961 84.4498918 -38.86328125 75.70532227 C-37.02177419 69.13037478 -35.26368896 62.53367788 -33.5 55.9375 C-30.81600795 45.91152862 -28.00265028 35.93503641 -25 26 C-59.87267109 30.48700283 -93.00652024 40.66868483 -125.43579102 54.01953125 C-127.62139782 54.85523504 -129.71834933 55.49961736 -132 56 C-106.07825916 28.23516418 -38.25186956 -2.06766862 0 0 Z " fill="#050505" transform="translate(535,276)"/>
<path d="M0 0 C41.55214558 3.83999138 81.33522386 23.28550103 116.3125 45.0625 C117.32666992 45.69365723 118.34083984 46.32481445 119.38574219 46.97509766 C123.69843884 49.71168898 127.4736016 52.27333575 131 56 C125.41285059 54.22654375 119.97829616 52.21662732 114.55566406 49.99316406 C99.67699172 43.9283439 84.43613005 39.38254684 69 35 C68.0713916 34.73171387 67.1427832 34.46342773 66.18603516 34.18701172 C53.98443491 30.67676726 41.68729809 28.38010745 29.15039062 26.40136719 C27 26 27 26 24 25 C24.27972656 25.92554688 24.55945313 26.85109375 24.84765625 27.8046875 C30.22734919 45.76599422 34.95733652 63.90537824 39.625 82.0625 C41.62342621 89.83148441 43.69752148 97.55572366 46.01831055 105.23413086 C48.1397036 112.32393743 50.03625992 119.47359626 51.9375 126.625 C52.1971756 127.60120804 52.1971756 127.60120804 52.46209717 128.59713745 C54.19720427 135.12678972 55.9176534 141.66005762 57.6015625 148.203125 C60.34235155 158.8490979 63.26531176 169.41211875 66.39477539 179.95068359 C68.73441827 187.90585601 70.76478003 195.91453754 72.72167969 203.97119141 C74.76764921 212.30121017 77.12905816 220.51955613 79.640625 228.72070312 C81.56139487 235.09214578 82.94491717 241.429639 84 248 C84.68384766 248.03536865 85.36769531 248.0707373 86.07226562 248.10717773 C110.55040983 249.5110713 136.64674102 255.16370438 159.75537109 263.21923828 C161.43993761 263.80519039 163.12845618 264.37980086 164.81884766 264.94873047 C185.08276803 271.77980216 202.12337885 279.85736199 219 293 C218.01 293.33 217.02 293.66 216 294 C214.046875 292.99609375 214.046875 292.99609375 211.75 291.4375 C194.51041059 280.66586621 172.96596865 275.88132637 153.33349609 271.51855469 C151.35135948 271.07807988 149.3725508 270.62267158 147.39453125 270.1640625 C126.82599538 265.67901247 105.75412441 263.7058393 84.76367188 262.59545898 C83.52810547 262.52915283 82.29253906 262.46284668 81.01953125 262.39453125 C79.92745361 262.34143799 78.83537598 262.28834473 77.71020508 262.23364258 C75 262 75 262 72 261 C71.02026367 258.55761719 71.02026367 258.55761719 70.16796875 255.296875 C69.84755615 254.09957764 69.52714355 252.90228027 69.19702148 251.66870117 C68.86046428 250.36248034 68.5239583 249.05624631 68.1875 247.75 C67.83354657 246.41539036 67.47814852 245.08116305 67.12133789 243.74731445 C66.40642675 241.07246734 65.69651829 238.39637554 64.99023438 235.71923828 C63.69607621 230.85848741 62.33080588 226.020604 60.9375 221.1875 C60.7005542 220.36008301 60.4636084 219.53266602 60.21948242 218.68017578 C58.92647076 214.17579969 57.61251698 209.67796463 56.28515625 205.18359375 C53.07714153 194.30630868 50.01841523 183.4138673 47.19702148 172.4296875 C45.12399176 164.38784481 42.86665629 156.40784727 40.5625 148.4296875 C38.86343266 142.54548095 37.21056236 136.64866511 35.5625 130.75 C35.26996338 129.70344238 34.97742676 128.65688477 34.67602539 127.57861328 C34.08089692 125.44893731 33.48592685 123.31921707 32.89111328 121.18945312 C31.42975161 115.95897944 29.96475833 110.72952329 28.5 105.5 C26.7364275 99.20364156 24.97369807 92.90705329 23.21484375 86.609375 C20.2913571 76.14670766 17.34578322 65.69144989 14.34399414 55.25097656 C11.78559518 46.31645537 9.33251366 37.35277405 6.89086914 28.38574219 C4.99977615 21.4784734 2.97694029 14.64336808 0.73876953 7.83984375 C0.02281661 5.08770747 -0.14590129 2.82724284 0 0 Z " fill="#050505" transform="translate(99,276)"/>
<path d="M0 0 C8.34652552 -0.25123321 16.1629689 0.40745072 24.375 1.875 C25.41527344 2.04902344 26.45554687 2.22304688 27.52734375 2.40234375 C30.36207336 2.89109023 33.17944615 3.4361059 36 4 C37.18078125 4.20625 38.3615625 4.4125 39.578125 4.625 C42 6 42 6 43.4609375 9.6953125 C43.79705351 11.16503945 44.09540743 12.64348075 44.375 14.125 C44.91125 16.72375 45.4475 19.3225 46 22 C39.4 22 32.8 22 26 22 C29.51716701 32.43873899 33.03783318 42.87629103 36.5625 53.3125 C36.82637135 54.09380154 37.09024269 54.87510307 37.36211014 55.68008041 C43.63625848 74.25407626 49.92757172 92.81951514 56.4375 111.3125 C63.10414352 130.25901887 69.55281701 149.27842756 75.98576736 168.30526352 C76.80733432 170.73472454 77.6295357 173.16397006 78.45187378 175.59317017 C79.75288957 179.43708395 81.05195657 183.28165097 82.34944534 187.12675667 C82.83254244 188.55782142 83.31614067 189.98871712 83.8002739 191.41943169 C84.47106774 193.40245853 85.13974175 195.38618799 85.80786133 197.37011719 C86.18453445 198.48618347 86.56120758 199.60224976 86.94929504 200.75213623 C88.04861619 204.15027888 89.03812121 207.56079478 90 211 C91.14025635 211.10546143 92.2805127 211.21092285 93.45532227 211.31958008 C95.07568496 211.46954902 96.69604616 211.61953415 98.31640625 211.76953125 C99.62192947 211.89033554 99.62192947 211.89033554 100.9538269 212.01358032 C105.80354401 212.46276818 110.65303797 212.91421233 115.50219727 213.36938477 C117.49364853 213.55619304 119.48510361 213.74296058 121.4765625 213.9296875 C122.46806808 214.02267624 123.45957367 214.11566498 124.48112488 214.21147156 C130.2434388 214.74963524 136.00710283 215.26484289 141.7734375 215.7578125 C212.2765876 221.91047933 212.2765876 221.91047933 225 237 C220.39431001 236.03429081 215.9331078 234.98209561 211.44921875 233.5546875 C205.60336056 231.78437904 199.72246744 230.82297243 193.6875 229.9375 C192.55103027 229.76758545 191.41456055 229.5976709 190.24365234 229.42260742 C183.21861198 228.39888005 176.19104772 227.49929724 169.125 226.8125 C168.0261145 226.7050647 168.0261145 226.7050647 166.9050293 226.59545898 C147.92144862 224.91677768 128.85554516 224.7430601 109.81298828 224.46777344 C106.32580688 224.4166006 102.83868869 224.36142627 99.3515625 224.30664062 C92.56776351 224.20062531 85.78390687 224.09886557 79 224 C75.94602327 216.58296816 73.21582057 209.08047742 70.5859375 201.50390625 C69.73307332 199.06184882 68.88020872 196.61979153 68.02734375 194.17773438 C66.71027088 190.39908369 65.39495117 186.61982294 64.07958984 182.84057617 C58.98965041 168.22655842 53.82835822 153.64875681 48.38497925 139.16200256 C45.74490862 132.1150512 43.28356123 125.02503084 40.9375 117.875 C38.00123807 108.94218091 34.90883828 100.08259649 31.69799805 91.24487305 C28.03122864 81.13604478 24.47831506 70.98873787 20.9284668 60.83843994 C17.78105876 51.8440159 14.60264055 42.86237117 11.34765625 33.90625 C10.90082993 32.67579704 10.90082993 32.67579704 10.44497681 31.42048645 C9.01514171 27.48605321 7.58013734 23.5536076 6.13769531 19.6237793 C5.61903565 18.20104738 5.1004757 16.77827911 4.58203125 15.35546875 C4.13061768 14.12465576 3.6792041 12.89384277 3.21411133 11.62573242 C1.9242907 7.77390734 0.93587558 3.95083894 0 0 Z " fill="#050505" transform="translate(70,330)"/>
<path d="M0 0 C-0.98558987 5.32300955 -2.65741694 10.31231233 -4.375 15.4375 C-4.73021729 16.5004126 -5.08543457 17.5633252 -5.45141602 18.65844727 C-8.56135914 27.87222899 -11.91427766 36.98743122 -15.29833984 46.10327148 C-19.88242932 58.50515829 -24.18854052 71.00123595 -28.5 83.5 C-33.61348122 98.32111448 -38.80221158 113.10066749 -44.25439453 127.80053711 C-47.66654216 137.02166118 -50.901748 146.29603336 -54.08496094 155.59838867 C-57.56726555 165.77157527 -61.11714565 175.91992433 -64.6875 186.0625 C-64.95181824 186.81338898 -65.21613647 187.56427795 -65.48846436 188.33792114 C-67.56725252 194.24295396 -67.56725252 194.24295396 -68.58935547 197.145401 C-71.73884135 206.09251672 -74.86911634 215.0463616 -78 224 C-78.68284561 224.00808685 -79.36569122 224.01617371 -80.06922913 224.02450562 C-124.58709331 224.30955928 -124.58709331 224.30955928 -169 227 C-170.1226123 227.10038574 -171.24522461 227.20077148 -172.40185547 227.30419922 C-190.69976363 228.99079805 -208.61688417 231.89900593 -226 238 C-199.14050653 209.36971724 -125.04141552 213.40400534 -89 211 C-88.87441208 210.13402191 -88.74882416 209.26804382 -88.61943054 208.37582397 C-88.01830694 205.0997707 -87.15847774 202.13812755 -86.08911133 198.98681641 C-85.69340439 197.81356308 -85.29769745 196.64030975 -84.88999939 195.4315033 C-84.45414006 194.15481196 -84.01814679 192.87816634 -83.58203125 191.6015625 C-83.12806555 190.26208909 -82.67446521 188.9224918 -82.22120667 187.58277893 C-81.00849231 184.00260671 -79.78975392 180.42451294 -78.56963348 176.84685898 C-77.55679983 173.8746307 -76.54752373 170.9011992 -75.53811646 167.9278059 C-69.62818636 150.52269199 -63.65088064 133.14279905 -57.5357666 115.80856323 C-53.3423844 103.92100481 -49.2998398 91.99109533 -45.347229 80.02145386 C-38.81702172 60.26083557 -31.90048156 40.63371585 -25 21 C-25.73387939 21.0714624 -26.46775879 21.1429248 -27.22387695 21.21655273 C-28.19800537 21.30880127 -29.17213379 21.4010498 -30.17578125 21.49609375 C-31.13653564 21.58818115 -32.09729004 21.68026855 -33.0871582 21.77514648 C-37.07361244 22.08287629 -41.0033941 22.06551813 -45 22 C-44.49953741 16.39481897 -43.83864674 10.96166826 -41 6 C-38.875 4.625 -38.875 4.625 -36 4 C-34.7625 3.67 -33.525 3.34 -32.25 3 C-21.69068566 0.77140099 -10.78057013 -0.34224032 0 0 Z " fill="#050505" transform="translate(563,330)"/>
<path d="M0 0 C4.14581819 -0.02931979 8.29160925 -0.04690557 12.4375 -0.0625 C13.60216797 -0.07087891 14.76683594 -0.07925781 15.96679688 -0.08789062 C29.01419067 -0.12464385 29.01419067 -0.12464385 35 1 C38.98929888 5.71954812 39.89157766 12.08841417 41 18 C36.05 18 31.1 18 26 18 C26.60134766 19.42034546 26.60134766 19.42034546 27.21484375 20.86938477 C34.87872434 38.98049475 42.49213997 57.11033229 49.9375 75.3125 C55.40563005 88.68003102 60.90108443 102.03559009 66.4375 115.375 C66.78714813 116.21758362 67.13679626 117.06016724 67.49703979 117.92828369 C69.63212361 123.0730773 71.7681755 128.21746854 73.90447998 133.36175537 C79.01257768 145.66313835 84.11760052 157.96578875 89.21228027 170.2727356 C91.15714626 174.96971832 93.10949722 179.66349157 95.06640625 184.35546875 C95.89867693 186.36187987 96.73073328 188.36837991 97.5625 190.375 C97.92666016 191.24213623 98.29082031 192.10927246 98.66601562 193.00268555 C101 198.65833683 101 198.65833683 101 202 C102.47533203 201.72736328 102.47533203 201.72736328 103.98046875 201.44921875 C112.25795014 199.94183091 120.54714003 198.57499931 128.875 197.375 C129.71699951 197.25213623 130.55899902 197.12927246 131.42651367 197.00268555 C133.94864013 196.64575533 136.47232523 196.31516471 139 196 C139.78262207 195.90066162 140.56524414 195.80132324 141.37158203 195.69897461 C150.0288238 194.75422587 158.7151872 194.81391141 167.41308594 194.81469727 C170.09847128 194.81252149 172.78343751 194.7943394 175.46875 194.77539062 C189.98647105 194.72728967 204.0737196 195.923864 218.3125 198.875 C219.14426758 199.04354492 219.97603516 199.21208984 220.83300781 199.38574219 C227.41427638 200.76844754 233.71091722 202.59685455 240 205 C236.91092349 205.98351763 234.98998163 205.96409099 231.875 205.125 C197.55282047 196.71659427 158.22384747 205.06560068 124.17156982 210.94970703 C118.00173601 212.01104741 111.82187457 212.98394614 105.625 213.875 C104.81224609 213.99488281 103.99949219 214.11476563 103.16210938 214.23828125 C99.06795132 214.81452244 95.12913247 215.04170841 91 215 C85.70472593 203.82022473 80.88518494 192.45158599 76.0625 181.0625 C75.18642982 178.99794846 74.31012189 176.93349778 73.43359375 174.86914062 C72.05115979 171.61316079 70.66890042 168.35710781 69.28738403 165.10073853 C64.52007743 153.86388912 59.73609396 142.63416461 54.9508667 131.40493774 C52.5199307 125.6999438 50.09009424 119.99448158 47.66015625 114.2890625 C44.90374749 107.81727014 42.14726505 101.34550928 39.39013672 94.87402344 C34.46657291 83.31704017 29.54752336 71.75815093 24.63427734 60.19677734 C22.75593148 55.77717679 20.87571134 51.35837789 18.99462891 46.93994141 C16.41103832 40.87074808 13.8312809 34.79993756 11.25393677 28.72808838 C10.25606391 26.37888254 9.25695044 24.03020327 8.25656128 21.68206787 C6.87081871 18.42877778 5.4895519 15.17362312 4.109375 11.91796875 C3.69170364 10.94019974 3.27403229 9.96243073 2.84370422 8.95503235 C2.46699081 8.06390244 2.0902774 7.17277252 1.70214844 6.25463867 C1.3716449 5.47706711 1.04114136 4.69949554 0.70062256 3.89836121 C0 2 0 2 0 0 Z " fill="#040404" transform="translate(42,364)"/>
<path d="M0 0 C0.98608749 0.00212242 0.98608749 0.00212242 1.99209595 0.00428772 C4.07029981 0.00983863 6.14839177 0.0223816 8.2265625 0.03515625 C9.64452968 0.04017761 11.06249857 0.0447394 12.48046875 0.04882812 C15.93753572 0.05979188 19.39453817 0.07702204 22.8515625 0.09765625 C16.04429137 16.51088981 9.13893495 32.8800194 2.1640625 49.22265625 C1.16135455 51.5741745 0.15875293 53.92573809 -0.84375 56.27734375 C-2.91674795 61.13982212 -4.99019285 66.00210951 -7.06396484 70.86425781 C-11.4553611 81.16126542 -15.84111907 91.46067372 -20.22705078 101.76000977 C-21.64991951 105.10113625 -23.07297236 108.44218425 -24.49609375 111.78320312 C-29.42682419 123.35893116 -34.35662869 134.93505262 -39.28515625 146.51171875 C-43.65216094 156.76931537 -48.02080434 167.02621205 -52.3918457 177.28208923 C-54.69162344 182.67814535 -56.99003742 188.07477642 -59.28639221 193.47229004 C-60.69678193 196.78574853 -62.11022843 200.09789927 -63.5234375 203.41015625 C-63.99934326 204.5305127 -64.47524902 205.65086914 -64.96557617 206.80517578 C-65.59363159 208.27446533 -65.59363159 208.27446533 -66.234375 209.7734375 C-66.5854834 210.59755127 -66.9365918 211.42166504 -67.29833984 212.27075195 C-68.1484375 214.09765625 -68.1484375 214.09765625 -69.1484375 215.09765625 C-74.75967372 215.38353513 -80.0136078 214.61457839 -85.53515625 213.671875 C-86.43224808 213.52361771 -87.3293399 213.37536041 -88.25361633 213.22261047 C-91.11529701 212.74873364 -93.9756418 212.26731554 -96.8359375 211.78515625 C-100.56861822 211.16169471 -104.30178921 210.54121258 -108.03515625 209.921875 C-109.41900513 209.6920417 -109.41900513 209.6920417 -110.83081055 209.45756531 C-143.39622726 204.07650871 -178.0427929 198.73255827 -210.796875 205.5390625 C-213.78447625 206.03699604 -215.37228505 206.17252553 -218.1484375 205.09765625 C-207.92033555 201.69724916 -197.81875448 198.81004413 -187.1484375 197.09765625 C-185.87355469 196.89140625 -184.59867187 196.68515625 -183.28515625 196.47265625 C-148.68852563 191.60947959 -113.21102698 195.7622825 -79.1484375 202.09765625 C-79.01308594 201.57010742 -78.87773437 201.04255859 -78.73828125 200.49902344 C-76.55847151 192.6314766 -73.381155 185.22464163 -70.17245483 177.73803711 C-68.36738353 173.52442886 -66.58135616 169.3027411 -64.79296875 165.08203125 C-64.41477493 164.19056396 -64.03658112 163.29909668 -63.64692688 162.38061523 C-59.31084646 152.14680616 -55.07102631 141.87357387 -50.8359375 131.59765625 C-50.03533932 129.65632301 -49.2347207 127.71499819 -48.43408203 125.77368164 C-46.81570738 121.84885357 -45.19795749 117.92376864 -43.58056641 113.99853516 C-39.96280327 105.21953884 -36.33849176 96.44324689 -32.7137146 87.66714478 C-31.5332963 84.80902711 -30.35318959 81.95078092 -29.1730957 79.0925293 C-25.19437308 69.45781961 -21.20828246 59.82621822 -17.2109375 50.19921875 C-16.81339264 49.2415712 -16.41584778 48.28392365 -16.0062561 47.29725647 C-14.11027168 42.73036431 -12.2131274 38.1639601 -10.31396484 33.59838867 C-9.64156727 31.97966919 -8.9692021 30.36093625 -8.296875 28.7421875 C-7.99056152 28.00702911 -7.68424805 27.27187073 -7.36865234 26.51443481 C-6.21197519 23.72730761 -5.10308529 20.96159963 -4.1484375 18.09765625 C-9.0984375 18.09765625 -14.0484375 18.09765625 -19.1484375 18.09765625 C-15.72259004 4.72053761 -15.72259004 4.72053761 -13.1484375 1.09765625 C-8.76176465 0.03784576 -4.49682283 -0.01921719 0 0 Z " fill="#040404" transform="translate(569.1484375,363.90234375)"/>
<path d="M0 0 C0.72703125 0.50660156 0.72703125 0.50660156 1.46875 1.0234375 C9.71530416 6.51056777 16.9620698 7.39103472 26.75 7.375 C28.2038208 7.37367065 28.2038208 7.37367065 29.68701172 7.37231445 C38.82548236 7.22151208 46.69077545 5.8776944 54 0 C54.05607422 1.52367187 54.05607422 1.52367187 54.11328125 3.078125 C54.77702752 18.06452839 57.40723112 31.89483927 67 44 C65.68268423 46.94645992 64.3003931 48.87836004 61.9375 51.0625 C58.03798172 54.84875426 54.65173333 58.95418365 51.25390625 63.19140625 C49.84585961 64.9459739 48.41901395 66.68580887 46.96484375 68.40234375 C42.28685685 73.99174758 38.51216348 79.87554245 34.88085938 86.17480469 C33.94337628 87.79660031 32.974739 89.40031894 32 91 C31.67 91 31.34 91 31 91 C30.89871834 84.21912367 30.82858475 77.43844178 30.78027344 70.65698242 C30.76013737 68.34929109 30.73282644 66.04165089 30.69824219 63.73413086 C30.64981285 60.42028192 30.62705116 57.10710653 30.609375 53.79296875 C30.58872986 52.7585112 30.56808472 51.72405365 30.54681396 50.6582489 C30.54651184 49.6974794 30.54620972 48.7367099 30.54589844 47.74682617 C30.53701599 46.90077316 30.52813354 46.05472015 30.51898193 45.18302917 C31.16691595 42.24247673 32.5531322 41.62116565 35 40 C36.00102439 37.0297473 36.15248834 34.12318714 36 31 C34.93190172 28.4595774 34.93190172 28.4595774 33 27 C29.36217368 25.78739123 26.82264001 25.60455448 23 26 C19.93692369 27.97966263 19.93692369 27.97966263 18 31 C17.44121723 34.91147941 17.76817646 37.71099688 20 41 C20.99 41.66 21.98 42.32 23 43 C23.36076355 45.06277466 23.36076355 45.06277466 23.34057617 47.63330078 C23.34023628 49.07456833 23.34023628 49.07456833 23.33988953 50.54495239 C23.32440567 51.58457123 23.30892181 52.62419006 23.29296875 53.6953125 C23.28872391 54.75789276 23.28447906 55.82047302 23.28010559 56.91525269 C23.26327389 60.31875646 23.22561303 63.72167433 23.1875 67.125 C23.17245899 69.42837688 23.15876958 71.73176302 23.14648438 74.03515625 C23.11335574 79.69030505 23.06311197 85.34511068 23 91 C20.7460541 88.03600066 18.66953877 84.99670551 16.63916016 81.87451172 C9.66977635 71.1956606 1.79621554 61.62308725 -7.01513672 52.41357422 C-9.51263988 49.77279194 -11.63314626 47.39667246 -13 44 C-12.43732422 43.35998047 -12.43732422 43.35998047 -11.86328125 42.70703125 C-1.45107073 29.98682445 -0.86321698 15.7744311 0 0 Z " fill="#023499" transform="translate(289,460)"/>
<path d="M0 0 C2.765625 0.3828125 2.765625 0.3828125 4.75 0.875 C1.30587389 5.57708707 -2.18705816 10.04309013 -6.24609375 14.234375 C-7.46727582 15.83210954 -7.46727582 15.83210954 -6.95117188 17.77758789 C-5.81436507 21.17811269 -3.50816177 23.78173903 -1.3125 26.5625 C-0.85681641 27.15611328 -0.40113281 27.74972656 0.06835938 28.36132812 C2.48970208 31.59721125 2.48970208 31.59721125 5.75 33.875 C5.86408203 33.01366455 5.97816406 32.1523291 6.09570312 31.26489258 C6.76850067 27.77914856 7.82567766 24.89729749 9.21875 21.63671875 C9.95158203 19.91291992 9.95158203 19.91291992 10.69921875 18.15429688 C11.21097656 16.96900391 11.72273438 15.78371094 12.25 14.5625 C13.01763672 12.75555664 13.01763672 12.75555664 13.80078125 10.91210938 C17.60040794 2.02459206 17.60040794 2.02459206 18.75 0.875 C20.43608966 0.80294489 22.12500659 0.79113932 23.8125 0.8125 C24.73160156 0.82152344 25.65070313 0.83054687 26.59765625 0.83984375 C27.30792969 0.85144531 28.01820313 0.86304688 28.75 0.875 C30.58912768 5.195787 32.42201744 9.51914729 34.24926758 13.8449707 C34.871272 15.31508941 35.49495169 16.78450052 36.12036133 18.25317383 C37.02089577 20.36874917 37.91530285 22.48682643 38.80859375 24.60546875 C39.0877916 25.25774948 39.36698944 25.91003021 39.65464783 26.58207703 C41.08429621 29.99015315 42.18481242 33.21808359 42.75 36.875 C39.45 36.875 36.15 36.875 32.75 36.875 C32.09 34.565 31.43 32.255 30.75 29.875 C25.8 29.875 20.85 29.875 15.75 29.875 C15.42 31.855 15.09 33.835 14.75 35.875 C12.13847677 38.48652323 5.47954962 37.42384173 1.98242188 37.47973633 C-1.99319725 37.40273312 -4.53308733 37.31919661 -7.9609375 35.1953125 C-9.66240078 33.16693051 -10.94903185 31.17367008 -12.25 28.875 C-13.2186818 27.84463328 -14.21002004 26.83335363 -15.25 25.875 C-17.74505962 28.37005962 -17.60948376 29.54828888 -17.875 33 C-17.94976562 33.91007813 -18.02453125 34.82015625 -18.1015625 35.7578125 C-18.15054687 36.45648437 -18.19953125 37.15515625 -18.25 37.875 C-21.22 37.875 -24.19 37.875 -27.25 37.875 C-27.53799328 33.87334864 -27.8227019 29.87147784 -28.10449219 25.86938477 C-28.20061525 24.51059812 -28.29760416 23.15187241 -28.39550781 21.79321289 C-28.53683631 19.82975624 -28.67469599 17.86605091 -28.8125 15.90234375 C-28.89628906 14.72406006 -28.98007812 13.54577637 -29.06640625 12.33178711 C-29.25190223 8.83918387 -29.28123903 5.37181932 -29.25 1.875 C-25.95 1.875 -22.65 1.875 -19.25 1.875 C-18.92 6.165 -18.59 10.455 -18.25 14.875 C-17.51136719 13.864375 -16.77273438 12.85375 -16.01171875 11.8125 C-6.84983083 -0.12470433 -6.84983083 -0.12470433 0 0 Z " fill="#D70707" transform="translate(286.25,574.125)"/>
<path d="M0 0 C3.3 0 6.6 0 10 0 C11.98 6.6 13.96 13.2 16 20 C17.93101238 14.4958682 17.93101238 14.4958682 19.85913086 8.99072266 C20.10026611 8.3054248 20.34140137 7.62012695 20.58984375 6.9140625 C20.83597412 6.2123291 21.08210449 5.5105957 21.33569336 4.78759766 C22 3 22 3 23 1 C26.3 1 29.6 1 33 1 C35.475 10.9 35.475 10.9 38 21 C38.5775 19.535625 39.155 18.07125 39.75 16.5625 C41.71241981 11.64944183 43.82263775 6.82130212 46 2 C48.97 2 51.94 2 55 2 C54.30850496 6.02354284 53.12906705 9.70334713 51.75 13.54296875 C51.08484375 15.40018555 51.08484375 15.40018555 50.40625 17.29492188 C50.17550781 17.93357178 49.94476563 18.57222168 49.70703125 19.23022461 C48.99888744 21.19057991 48.29589063 23.15272188 47.59375 25.11523438 C44.15085807 34.69828386 44.15085807 34.69828386 43 37 C39.7 37 36.4 37 33 37 C31.02 30.4 29.04 23.8 27 17 C24.69 23.27 22.38 29.54 20 36 C16.37 36 12.74 36 9 36 C8.40251953 33.68355469 8.40251953 33.68355469 7.79296875 31.3203125 C7.25791233 29.25518247 6.72275045 27.19007975 6.1875 25.125 C5.92646484 24.11179687 5.66542969 23.09859375 5.39648438 22.0546875 C3.91285425 16.33996406 2.3361577 10.68048221 0.54418945 5.05419922 C0 3 0 3 0 0 Z " fill="#D60505" transform="translate(330,575)"/>
<path d="M0 0 C2.97577089 0.03719714 3.9962892 0.30802722 6.125 2.44140625 C7.84392531 4.94954967 9.36296521 7.50065891 10.84375 10.15625 C11.38 11.06246094 11.91625 11.96867188 12.46875 12.90234375 C13.78679138 15.1383068 15.06884293 17.3954148 16.34375 19.65625 C17.00375 14.04625 17.66375 8.43625 18.34375 2.65625 C25.34375 2.65625 25.34375 2.65625 28.34375 3.65625 C27.77952136 15.38626638 26.74827266 26.99734829 25.34375 38.65625 C21.57958561 39.91097146 20.10657306 39.99219087 16.34375 38.65625 C13.96881865 35.87477818 12.24652288 32.77973156 10.46875 29.59375 C9.97117187 28.73974609 9.47359375 27.88574219 8.9609375 27.00585938 C7.73684898 24.89901471 6.53241493 22.78321771 5.34375 20.65625 C4.07935855 23.18503289 4.05327617 25.27637127 3.84375 28.09375 C3.61068358 31.21933718 3.33900057 33.67049829 2.34375 36.65625 C-0.62625 36.65625 -3.59625 36.65625 -6.65625 36.65625 C-6.97044877 28.53944831 -6.41064116 20.55265676 -5.71875 12.46875 C-5.63189941 11.428396 -5.54504883 10.38804199 -5.45556641 9.31616211 C-5.32480713 7.85448608 -5.32480713 7.85448608 -5.19140625 6.36328125 C-5.112854 5.4813208 -5.03430176 4.59936035 -4.95336914 3.69067383 C-4.4392864 0.17066438 -3.75045653 0.67315886 0 0 Z " fill="#D70808" transform="translate(431.65625,579.34375)"/>
<path d="M0 0 C3.3 0 6.6 0 10 0 C10.34087929 3.93688387 10.67128501 7.8745833 11 11.8125 C11.14308594 13.46282227 11.14308594 13.46282227 11.2890625 15.14648438 C11.86480392 22.11706802 12.12656584 29.00635837 12 36 C5.11261805 36.68575664 5.11261805 36.68575664 2.27929688 34.93945312 C0.66323891 33.45006468 -0.79910331 31.90049095 -2.25 30.25 C-2.75273437 29.71117187 -3.25546875 29.17234375 -3.7734375 28.6171875 C-4.74843107 27.57072843 -5.71562977 26.51693733 -6.67382812 25.45507812 C-8.3881732 23.57409568 -10.18348877 21.78191101 -12 20 C-11.855625 20.54527344 -11.71125 21.09054687 -11.5625 21.65234375 C-10.18471403 27.24959924 -9.81712563 32.23945745 -10 38 C-13.3 38 -16.6 38 -20 38 C-20.43046104 33.8194143 -20.85760419 29.63850659 -21.28173828 25.45727539 C-21.42634448 24.03628491 -21.57184104 22.61538474 -21.71826172 21.19458008 C-21.92912811 19.14688097 -22.13674139 17.09887351 -22.34375 15.05078125 C-22.46943359 13.82012939 -22.59511719 12.58947754 -22.72460938 11.3215332 C-22.95657666 8.52373627 -23.05585531 5.8044021 -23 3 C-19.91535464 2.10468343 -17.20712477 1.63053923 -14 2 C-11.1016807 4.22856453 -9.17787264 7.08952489 -7 10 C-5.71165396 11.35668659 -4.40011882 12.69186777 -3.0625 14 C-2.051875 14.99 -1.04125 15.98 0 17 C0 11.39 0 5.78 0 0 Z " fill="#D70707" transform="translate(204,579)"/>
<path d="M0 0 C3.3 0 6.6 0 10 0 C13.03764946 7.39571862 15.72901752 14.85121012 18.25 22.4375 C18.61351562 23.51193359 18.97703125 24.58636719 19.3515625 25.69335938 C19.69445312 26.72138672 20.03734375 27.74941406 20.390625 28.80859375 C20.70032227 29.73470459 21.01001953 30.66081543 21.32910156 31.61499023 C22 34 22 34 22 37 C18.7 37 15.4 37 12 37 C11.01 33.535 11.01 33.535 10 30 C5.38 30 0.76 30 -4 30 C-4.99 32.475 -4.99 32.475 -6 35 C-9.3 35 -12.6 35 -16 35 C-15.3764449 30.55394145 -13.64539469 26.90076403 -11.62109375 22.94921875 C-11.28956802 22.29041214 -10.9580423 21.63160553 -10.61647034 20.95283508 C-9.56244158 18.86149094 -8.5001205 16.77448954 -7.4375 14.6875 C-6.71884842 13.26525306 -6.00074341 11.8427298 -5.28320312 10.41992188 C-3.52844785 6.9433833 -1.76624636 3.4707137 0 0 Z " fill="#D70707" transform="translate(400,578)"/>
<path d="M0 0 C2.50043242 1.65112943 3.70818355 3.47854676 4.8515625 6.22265625 C1.3865625 8.69765625 1.3865625 8.69765625 -2.1484375 11.22265625 C-2.8084375 10.56265625 -3.4684375 9.90265625 -4.1484375 9.22265625 C-8.21882283 6.50906603 -10.31895245 6.83318165 -15.1484375 7.22265625 C-16.1384375 7.55265625 -17.1284375 7.88265625 -18.1484375 8.22265625 C-19.50531071 12.29327589 -19.79740753 15.97078362 -19.1484375 20.22265625 C-16.47607018 24.10973599 -14.95804472 25.05011701 -10.3359375 26.03515625 C-9.2840625 26.09703125 -8.2321875 26.15890625 -7.1484375 26.22265625 C-6.8184375 22.92265625 -6.4884375 19.62265625 -6.1484375 16.22265625 C-3.81548975 16.18023902 -1.48141183 16.18172688 0.8515625 16.22265625 C1.8515625 17.22265625 1.8515625 17.22265625 1.9765625 20.84765625 C1.93460715 24.72153347 1.48795309 28.40431269 0.8515625 32.22265625 C-5.53255741 34.62631586 -11.38965014 34.91232843 -18.1484375 34.22265625 C-23.38716338 31.79039066 -27.54685707 27.4258171 -30.1484375 22.22265625 C-30.64978005 15.78233268 -31.12792668 9.61422224 -27.1484375 4.22265625 C-19.11767724 -3.80810401 -10.3287225 -5.09136675 0 0 Z " fill="#D70606" transform="translate(493.1484375,587.77734375)"/>
<path d="M0 0 C4.021875 -0.0928125 4.021875 -0.0928125 8.125 -0.1875 C8.95789551 -0.21481201 9.79079102 -0.24212402 10.64892578 -0.27026367 C15.50216616 -0.32411136 18.8010775 0.298824 23 3 C24.11445498 5.22890995 24.16480286 6.53055106 24.1875 9 C24.20167969 9.70125 24.21585937 10.4025 24.23046875 11.125 C24 13 24 13 22 15 C22.66 15.70125 23.32 16.4025 24 17.125 C26 20 26 20 26.5625 23 C25.7696925 27.22830667 24.45526021 28.43434037 21 31 C17.37092145 31.61148763 13.85432218 31.47134034 10.1875 31.3125 C6.825625 31.209375 3.46375 31.10625 0 31 C0 20.77 0 10.54 0 0 Z " fill="#D70707" transform="translate(306,22)"/>
<path d="M0 0 C1.9140625 1.08984375 1.9140625 1.08984375 4.5390625 3.08984375 C4.13222755 5.44948648 3.64091911 6.94918463 2.2265625 8.90234375 C0.5390625 10.08984375 0.5390625 10.08984375 -1.5234375 9.83984375 C-3.4609375 9.08984375 -3.4609375 9.08984375 -5.4609375 8.08984375 C-10.53972675 7.56873404 -10.53972675 7.56873404 -14.8359375 9.96484375 C-17.53504691 13.49444836 -17.80929862 15.64823944 -17.4609375 20.08984375 C-15.69620195 23.80141249 -15.69620195 23.80141249 -12.4609375 26.08984375 C-9.45619253 26.22543693 -6.47024903 26.13283391 -3.4609375 26.08984375 C-3.4609375 22.78984375 -3.4609375 19.48984375 -3.4609375 16.08984375 C-0.8209375 16.08984375 1.8190625 16.08984375 4.5390625 16.08984375 C5.57496449 21.13986597 5.64157922 25.96400764 5.5390625 31.08984375 C4.2695095 31.73819029 2.99836544 32.3834219 1.7265625 33.02734375 C0.66501953 33.56681641 0.66501953 33.56681641 -0.41796875 34.1171875 C-6.08235686 36.81399943 -11.19049484 36.75531832 -17.0859375 35.02734375 C-22.03763841 32.18470064 -25.63802431 28.55858331 -27.4609375 23.08984375 C-27.93248147 17.29990226 -28.29318929 11.95408776 -25.8984375 6.58984375 C-25.0940625 5.76484375 -24.2896875 4.93984375 -23.4609375 4.08984375 C-23.02136719 3.60773437 -22.58179688 3.125625 -22.12890625 2.62890625 C-16.35989513 -2.65813685 -7.07454403 -2.61645835 0 0 Z " fill="#D60505" transform="translate(247.4609375,577.91015625)"/>
<path d="M0 0 C-0.33 2.31 -0.66 4.62 -1 7 C-5.40914783 8.10228696 -9.48382401 8.07654536 -14 8 C-14.33 9.32 -14.66 10.64 -15 12 C-14.04738281 12.15855469 -13.09476563 12.31710937 -12.11328125 12.48046875 C-10.85902344 12.71378906 -9.60476562 12.94710937 -8.3125 13.1875 C-7.07113281 13.40792969 -5.82976562 13.62835937 -4.55078125 13.85546875 C-0.44548124 15.17873927 1.3540326 16.62514347 4 20 C4.90939056 23.41498415 4.47013317 26.80470858 3.171875 30.10546875 C1.00832604 33.60320623 -2.19311841 34.93671759 -6 36 C-19.03939123 36.98030439 -19.03939123 36.98030439 -23 35 C-23.125 29.25 -23.125 29.25 -22 27 C-17.05 27 -12.1 27 -7 27 C-7 25.68 -7 24.36 -7 23 C-7.88042969 22.90203125 -8.76085937 22.8040625 -9.66796875 22.703125 C-10.82941406 22.55359375 -11.99085938 22.4040625 -13.1875 22.25 C-14.33605469 22.11078125 -15.48460937 21.9715625 -16.66796875 21.828125 C-20.38782817 20.90361129 -22.25313166 19.63136931 -25 17 C-26.60530177 13.78939647 -26.4755557 10.48294319 -26 7 C-20.72407408 -2.13141024 -9.37735881 -3.12578627 0 0 Z " fill="#D70606" transform="translate(159,586)"/>
<path d="M0 0 C1.97265625 0.8515625 1.97265625 0.8515625 2.9140625 2.890625 C3.11902344 3.74398437 3.32398438 4.59734375 3.53515625 5.4765625 C4.67521976 9.81496633 6.1469591 13.74374391 7.97265625 17.8515625 C11.4232865 26.04483981 11.4232865 26.04483981 10.97265625 30.8515625 C6.22265625 31.9765625 6.22265625 31.9765625 3.97265625 30.8515625 C3.64265625 31.8415625 3.31265625 32.8315625 2.97265625 33.8515625 C-0.27145986 36.13445902 -3.14350493 36.24787258 -7.02734375 35.8515625 C-11.17821097 34.17144958 -13.25131884 31.73381705 -15.2890625 27.7421875 C-16.56587745 24.47246032 -16.64424608 22.30621556 -16.02734375 18.8515625 C-14.45909586 15.92683742 -12.75101195 13.76610751 -10.02734375 11.8515625 C-7.11071523 11.26614602 -5.0325319 11.48886738 -2.02734375 11.8515625 C-2.54296875 10.7790625 -3.05859375 9.7065625 -3.58984375 8.6015625 C-4.60822008 6.22855349 -5.04603828 5.08835985 -4.83984375 2.4765625 C-3.64917592 0.09522684 -2.6026815 -0.19056242 0 0 Z " fill="#D80C0C" transform="translate(225.02734375,35.1484375)"/>
<path d="M0 0 C3.84849802 3.39034349 4.45231065 5.72951428 5 10.75 C4.54706591 15.05287381 3.43374181 17.04828654 0.625 20.3125 C-3.33232855 22.73086744 -7.84581868 23.06430743 -12.375 22.3125 C-15.95622392 20.13262457 -17.77994691 18.13922826 -19.375 14.3125 C-20.07108513 9.78794663 -19.98883227 6.3428613 -17.625 2.375 C-12.25238512 -2.54989697 -6.52861906 -3.26430953 0 0 Z " fill="#D70707" transform="translate(576.375,215.6875)"/>
<path d="M0 0 C0.64066406 0.27714844 1.28132813 0.55429687 1.94140625 0.83984375 C3.23884766 1.38318359 3.23884766 1.38318359 4.5625 1.9375 C5.40941406 2.29714844 6.25632812 2.65679687 7.12890625 3.02734375 C19.16435239 7.10465816 33.72479443 6.20467331 45.49609375 1.875 C48 1 48 1 51 1 C52 2 52 2 52.4375 4.3125 C52 7 52 7 49.75 9.125 C37.2084163 16.26673516 20.00489886 15.63769969 6.48046875 11.94921875 C3.72244489 10.893786 1.40984525 9.71048457 -1 8 C-1.9375 4.9375 -1.9375 4.9375 -2 2 C-1.34 1.34 -0.68 0.68 0 0 Z " fill="#D70A0A" transform="translate(291,448)"/>
<path d="M0 0 C0.99 0.33 1.98 0.66 3 1 C3.6875 3.0625 3.6875 3.0625 4 5 C3.05125 5.598125 2.1025 6.19625 1.125 6.8125 C-2.13964197 8.81562526 -2.13964197 8.81562526 -4 12 C-3.69159401 14.15274948 -3.69159401 14.15274948 -3 16 C0.48668432 15.00380448 3.02001499 13.98582272 6 11.875 C9.47126926 9.70545671 10.99525048 9.14792563 15 10 C18.15440082 12.61748153 19.78038154 14.13160418 20.26171875 18.2265625 C20.02143737 22.33194148 19.36911252 24.52542676 16.8125 27.8125 C8.85714286 34 8.85714286 34 5 34 C4.34 32.35 3.68 30.7 3 29 C3.83144531 28.49339844 3.83144531 28.49339844 4.6796875 27.9765625 C5.40414062 27.53054687 6.12859375 27.08453125 6.875 26.625 C7.59429687 26.18414062 8.31359375 25.74328125 9.0546875 25.2890625 C11.11793582 24.0146287 11.11793582 24.0146287 13 22 C13 20.68 13 19.36 13 18 C9.58990734 18.42626158 7.04498608 19.44245478 4.0625 21.0625 C0.51274811 22.87073828 -1.96956492 23.89565224 -6 23 C-9.10218552 20.16756974 -10.74506428 18.1981979 -11.625 14.0625 C-10.51310545 8.61421672 -7.33930271 4.73661946 -2.875 1.5 C-1.92625 1.005 -0.9775 0.51 0 0 Z " fill="#D70B0B" transform="translate(110,109)"/>
<path d="M0 0 C3.62342508 1.6470114 6.16816086 3.4327343 8 7 C8.52652992 11.6635507 8.62559647 14.55693342 6 18.5 C5.01 19.7375 5.01 19.7375 4 21 C0.76138697 19.55575365 -1.61969163 17.74227753 -4.25 15.375 C-4.95640625 14.74335937 -5.6628125 14.11171875 -6.390625 13.4609375 C-6.92171875 12.97882813 -7.4528125 12.49671875 -8 12 C-8.61266661 13.91376067 -8.61266661 13.91376067 -9 16 C-7.4657452 18.18025682 -6.35666511 18.88790525 -3.8125 19.6875 C-3.214375 19.790625 -2.61625 19.89375 -2 20 C-2 21.65 -2 23.3 -2 25 C-6.1500316 25.49405138 -7.71915862 25.18902785 -11.25 22.8125 C-14.75200965 19.23089922 -15.74974596 16.96032333 -16.375 12.0625 C-15.77375256 7.15231255 -13.47795875 4.19834493 -9.6875 1.125 C-6.20647239 -0.33217435 -3.74471902 -0.40121989 0 0 Z " fill="#D70B0B" transform="translate(502,102)"/>
<path d="M0 0 C3.57461615 3.45930595 5.1565167 5.31259374 5.375 10.3125 C5.35031361 14.14506165 5.13918768 14.82418398 2.625 18 C-1.58906331 21.21071491 -4.97284966 21.29110003 -10.125 21.5625 C-11.25615234 21.62727539 -11.25615234 21.62727539 -12.41015625 21.69335938 C-14.27321888 21.7994832 -16.13658524 21.90025001 -18 22 C-17.95875 20.906875 -17.9175 19.81375 -17.875 18.6875 C-17.67925334 14.91107771 -17.67925334 14.91107771 -20 12 C-20.42255137 8.12661246 -20.56667558 5.88401391 -18.4375 2.5625 C-15.07240983 0.40539092 -12.91795996 0.43011492 -9 1 C-6.60407545 2.83687549 -6.11587352 4.33344046 -5.60546875 7.26953125 C-5.34046972 9.51318969 -5.13970921 11.74538236 -5 14 C-4.01 13.67 -3.02 13.34 -2 13 C-1.87530901 7.42169984 -1.87530901 7.42169984 -3 2 C-2.01 1.34 -1.02 0.68 0 0 Z " fill="#D70C0C" transform="translate(588,269)"/>
<path d="M0 0 C3.97825981 2.18414264 5.46919088 3.56065242 7.04296875 7.828125 C8.29967296 12.61894105 9.16433215 17.03351724 9 22 C7.906875 22.12375 6.81375 22.2475 5.6875 22.375 C1.92618198 22.75464801 1.92618198 22.75464801 -1 25 C-4.5086342 25.54468716 -7.83245911 25.6202561 -11 23.9375 C-12.62897258 20.78136563 -12.48820905 18.47848951 -12 15 C-8.51752628 10.98987875 -5.17156444 10.4056129 0 10 C-0.66 9.01 -1.32 8.02 -2 7 C-7.3086849 7.58174845 -7.3086849 7.58174845 -12 10 C-12.99 9.01 -13.98 8.02 -15 7 C-14 4 -14 4 -12.36328125 2.83203125 C-4.78393401 -0.93598709 -4.78393401 -0.93598709 0 0 Z " fill="#D80D0D" transform="translate(251,37)"/>
<path d="M0 0 C3.99462993 2.10827691 6.69462893 4.07233077 9 8 C9.74197553 11.18578382 9.81526252 13.82328743 9 17 C5.08717031 22.56296872 -1.99900028 25.27117518 -8 28 C-10 25 -10 25 -10 21 C-10.61875 20.7525 -11.2375 20.505 -11.875 20.25 C-14.49443701 18.7091547 -15.13480643 17.91019654 -16 15 C-15.8125 11.375 -15.8125 11.375 -15 8 C-11.43961959 5.62641306 -10.19103161 5.26040619 -6 6 C-3.62186915 8.06536081 -1.69386972 10.34506944 0 13 C0 13.66 0 14.32 0 15 C0.66 14.67 1.32 14.34 2 14 C1.73606499 10.56769552 1.73606499 10.56769552 1 7 C0.01 6.34 -0.98 5.68 -2 5 C-1.125 1.125 -1.125 1.125 0 0 Z " fill="#D70B0B" transform="translate(546,157)"/>
<path d="M0 0 C2.80078125 2.01171875 2.80078125 2.01171875 5.3125 4.6875 C6.57513672 5.99267578 6.57513672 5.99267578 7.86328125 7.32421875 C9.88929959 9.86137152 11.00030844 11.93464742 12 15 C10.68 15.99 9.36 16.98 8 18 C7.67 17.67 7.34 17.34 7 17 C6.3503125 18.423125 6.3503125 18.423125 5.6875 19.875 C4 23 4 23 1 25 C-2.5 25.375 -2.5 25.375 -6 25 C-8.55229824 22.85936276 -8.92612136 21.37760192 -9.5625 18.125 C-8.85153525 14.17519585 -7.27828225 12.85074305 -4.3125 10.296875 C-3.6628125 9.65492187 -3.6628125 9.65492187 -3 9 C-3 8.34 -3 7.68 -3 7 C-5.40877257 7.11341534 -5.40877257 7.11341534 -8 8 C-9.84434349 10.46115547 -9.84434349 10.46115547 -11 13 C-12.65 12.67 -14.3 12.34 -16 12 C-15.58424938 7.14957612 -13.58340022 5.15680495 -10 2 C-6.24820516 -0.50119656 -4.44493546 -0.50976216 0 0 Z " fill="#D70A0A" transform="translate(138,98)"/>
<path d="M0 0 C1 5.75 1 5.75 1 8 C1.99 9.485 1.99 9.485 3 11 C3.27808846 14.14587573 2.90503287 16.97773872 2 20 C-2.68694535 24.81361955 -9.56895478 25.77503901 -16 27 C-16.99 27 -17.98 27 -19 27 C-19.33 24.69 -19.66 22.38 -20 20 C-18.64455078 19.70996094 -18.64455078 19.70996094 -17.26171875 19.4140625 C-16.08222656 19.15367187 -14.90273438 18.89328125 -13.6875 18.625 C-12.51574219 18.36976563 -11.34398437 18.11453125 -10.13671875 17.8515625 C-6.87079555 17.14304469 -6.87079555 17.14304469 -4 15 C-4.33 13.35 -4.66 11.7 -5 10 C-11.11485027 9.90293888 -16.93303301 10.22959149 -23 11 C-23 9.02 -23 7.04 -23 5 C-20.79290017 4.34996375 -18.58426108 3.70515255 -16.375 3.0625 C-15.14523437 2.70285156 -13.91546875 2.34320313 -12.6484375 1.97265625 C-8.39111842 0.83767504 -4.41021199 0 0 0 Z " fill="#D80F0F" transform="translate(586,240)"/>
<path d="M0 0 C3.3 0 6.6 0 10 0 C10.43046104 4.1805857 10.85760419 8.36149341 11.28173828 12.54272461 C11.42634448 13.96371509 11.57184104 15.38461526 11.71826172 16.80541992 C11.92912811 18.85311903 12.13674139 20.90112649 12.34375 22.94921875 C12.46943359 24.17987061 12.59511719 25.41052246 12.72460938 26.6784668 C12.95657666 29.47626373 13.05585531 32.1955979 13 35 C9.78548731 36.60725635 6.56387464 36.05748185 3 36 C2.48877952 32.06387423 1.99313662 28.12592893 1.5 24.1875 C1.35691406 23.08728516 1.21382812 21.98707031 1.06640625 20.85351562 C0.19763634 13.84130136 -0.14166725 7.06565428 0 0 Z " fill="#D70909" transform="translate(165,583)"/>
<path d="M0 0 C2.9375 0.375 2.9375 0.375 6 1 C6.33 1.66 6.66 2.32 7 3 C7.90492188 2.93039063 7.90492188 2.93039063 8.828125 2.859375 C12.53746393 2.69185647 15.2162473 2.59856569 18.5625 4.3125 C21.79926469 10.36384268 20.38229556 17.35614222 18.5 23.6875 C18.01534507 25.13024594 17.52112032 26.57002103 17 28 C15.02 27.67 13.04 27.34 11 27 C11.14507078 25.66658348 11.2911103 24.33327236 11.4375 23 C11.52644531 22.1853125 11.61539062 21.370625 11.70703125 20.53125 C11.97899464 18.18148627 12.298221 15.8426235 12.625 13.5 C12.74875 12.345 12.8725 11.19 13 10 C11.94945399 8.75339676 11.94945399 8.75339676 9.625 8.625 C6.88006747 8.72451141 6.88006747 8.72451141 5.375 10.875 C3.49949007 15.13752256 2.22829491 19.51367463 1 24 C-0.98 23.67 -2.96 23.34 -5 23 C-4.34240251 17.73229802 -3.26735876 12.69866827 -1.9375 7.5625 C-1.75123047 6.83095703 -1.56496094 6.09941406 -1.37304688 5.34570312 C-0.9186242 3.56296802 -0.45977534 1.78136213 0 0 Z " fill="#D70B0B" transform="translate(373,36)"/>
<path d="M0 0 C5.10884605 1.43047689 9.01744261 3.71389694 13.375 6.625 C14.01566406 7.04523438 14.65632813 7.46546875 15.31640625 7.8984375 C16.88155698 8.92629768 18.44134314 9.96231886 20 11 C19.34 12.65 18.68 14.3 18 16 C17.34 16 16.68 16 16 16 C15.9175 17.0725 15.835 18.145 15.75 19.25 C15 23 15 23 13.5 25.4375 C10.39709571 27.37681518 8.3628236 27.79348908 4.7265625 27.671875 C-1.10920444 26.23383501 -6.11001447 22.38595598 -11 19 C-10.01 17.02 -9.02 15.04 -8 13 C-6.91332031 13.6496875 -6.91332031 13.6496875 -5.8046875 14.3125 C-4.83789062 14.869375 -3.87109375 15.42625 -2.875 16 C-1.92367187 16.556875 -0.97234375 17.11375 0.0078125 17.6875 C3.26515122 19.11630654 5.4837829 19.25041309 9 19 C9.33 17.35 9.66 15.7 10 14 C5.91266859 10.55131413 1.56194093 7.76206846 -3 5 C-2.01 3.35 -1.02 1.7 0 0 Z " fill="#D70B0B" transform="translate(78,160)"/>
<path d="M0 0 C1.32 1.32 2.64 2.64 4 4 C3.67 4.66 3.34 5.32 3 6 C3.94875 6.598125 4.8975 7.19625 5.875 7.8125 C9 10 9 10 11 13 C11.14060682 17.21820469 11.11939661 19.6523769 8.390625 22.9375 C4.28607341 26.6284146 -0.11635187 29.45643326 -5 32 C-6.5 30.6875 -6.5 30.6875 -8 29 C-8 28.01 -8 27.02 -8 26 C-5.24131139 23.85932929 -2.34128637 22.02279804 0.59375 20.1328125 C3.26009691 18.22858209 3.26009691 18.22858209 3.40625 15.3046875 C3.23488071 13.04367379 3.23488071 13.04367379 2 12 C-1.47190595 11.30561881 -3.4298696 11.62857955 -6.3984375 13.5625 C-8.64941076 15.32351378 -10.84517037 17.12290397 -13 19 C-14.9375 18.1875 -14.9375 18.1875 -17 17 C-17.33 16.01 -17.66 15.02 -18 14 C-15.75043199 12.22861556 -13.50036258 10.45787453 -11.25 8.6875 C-10.29867187 7.93823242 -10.29867187 7.93823242 -9.328125 7.17382812 C-6.24355585 4.74794301 -3.15493938 2.33433646 0 0 Z " fill="#D70909" transform="translate(530,132)"/>
<path d="M0 0 C2.5 1.375 2.5 1.375 5 3 C5 3.66 5 4.32 5 5 C5.886875 5.061875 6.77375 5.12375 7.6875 5.1875 C11.86470646 6.21209781 13.4213422 7.58707056 16 11 C16.62634954 16.08197236 15.28450626 18.90515216 12.625 23.1875 C11.99851562 24.21230469 11.37203125 25.23710938 10.7265625 26.29296875 C9.50481964 28.20850677 8.26027366 30.10958951 7 32 C5.35 31.34 3.7 30.68 2 30 C2 24.94133099 3.74550006 23.23226266 6.6875 19.31640625 C8.19877271 16.64918984 8.25537034 15.01656216 8 12 C5.03 11.505 5.03 11.505 2 11 C1.52949219 11.61488281 1.05898438 12.22976562 0.57421875 12.86328125 C-0.04839844 13.67152344 -0.67101562 14.47976562 -1.3125 15.3125 C-1.92738281 16.11300781 -2.54226563 16.91351563 -3.17578125 17.73828125 C-4.69916307 19.62701374 -6.24434407 21.33077636 -8 23 C-9.32 22.01 -10.64 21.02 -12 20 C-10.37885498 15.20178341 -7.70723241 11.3327141 -4.875 7.1875 C-4.40707031 6.49462891 -3.93914062 5.80175781 -3.45703125 5.08789062 C-2.30887563 3.38908895 -1.15500633 1.69415136 0 0 Z " fill="#D70A0A" transform="translate(459,70)"/>
<path d="M0 0 C2.80863976 2.03483085 4.63451061 3.68601137 5.58374023 7.09863281 C5.937584 9.50608377 6.15344824 11.88456528 6.3125 14.3125 C6.38533203 15.14845703 6.45816406 15.98441406 6.53320312 16.84570312 C6.70890101 18.89551183 6.85720835 20.94763648 7 23 C5.02 23 3.04 23 1 23 C0.79503906 21.92878906 0.59007812 20.85757813 0.37890625 19.75390625 C0.10697291 18.35673149 -0.16517352 16.95959819 -0.4375 15.5625 C-0.57220703 14.85544922 -0.70691406 14.14839844 -0.84570312 13.41992188 C-1.28406898 9.91570736 -1.28406898 9.91570736 -3 7 C-5.5 6.83333333 -5.5 6.83333333 -8 7 C-9.44388571 8.21428988 -9.44388571 8.21428988 -9.09765625 11.81640625 C-9.09098089 13.39846682 -9.07901875 14.98051159 -9.0625 16.5625 C-9.05798828 17.36880859 -9.05347656 18.17511719 -9.04882812 19.00585938 C-9.03700518 21.00393756 -9.01906914 23.00197783 -9 25 C-10.98 25 -12.96 25 -15 25 C-15.5064814 22.29273634 -16.005351 19.58442876 -16.5 16.875 C-16.64308594 16.11445312 -16.78617187 15.35390625 -16.93359375 14.5703125 C-17.70312456 10.31957086 -18.16644376 6.34140803 -18 2 C-12.25 1 -12.25 1 -10 1 C-6.84203893 -0.57898053 -3.39329364 -0.81928171 0 0 Z " fill="#D70A0A" transform="translate(281,32)"/>
<path d="M0 0 C7.72662559 2.57554186 11.03381373 10.30187767 14.5625 17.1875 C10.8125 20.1875 10.8125 20.1875 8.5625 20.1875 C7.0993217 18.21309073 5.75536936 16.25511129 4.4375 14.1875 C3.87869141 13.32898438 3.87869141 13.32898438 3.30859375 12.453125 C2.38699592 11.03528218 1.47394179 9.61189275 0.5625 8.1875 C-1.4175 8.5175 -3.3975 8.8475 -5.4375 9.1875 C-6.15168567 13.82970687 -5.02375331 16.1595375 -2.4375 19.875 C-1.880625 20.62136719 -1.32375 21.36773437 -0.75 22.13671875 C0.5625 24.1875 0.5625 24.1875 0.5625 27.1875 C-1.0875 27.8475 -2.7375 28.5075 -4.4375 29.1875 C-6.47510533 26.26130821 -8.48955726 23.31990552 -10.5 20.375 C-11.37108398 19.12493164 -11.37108398 19.12493164 -12.25976562 17.84960938 C-13.07670898 16.64594727 -13.07670898 16.64594727 -13.91015625 15.41796875 C-14.41812744 14.67957764 -14.92609863 13.94118652 -15.44946289 13.18041992 C-16.4375 11.1875 -16.4375 11.1875 -15.4375 8.1875 C-13.5 7.4375 -13.5 7.4375 -11.4375 7.1875 C-10.7775 7.5175 -10.1175 7.8475 -9.4375 8.1875 C-9.375625 7.61 -9.31375 7.0325 -9.25 6.4375 C-7.59624847 1.85788039 -4.72781798 0.25788098 0 0 Z " fill="#D70909" transform="translate(168.4375,72.8125)"/>
<path d="M0 0 C2.49395755 0.47773862 4.61380996 1.11211534 7 2 C7 3.98 7 5.96 7 8 C5.78441406 7.91621094 4.56882812 7.83242188 3.31640625 7.74609375 C1.73178879 7.64295297 0.14715235 7.54010339 -1.4375 7.4375 C-2.64116211 7.35338867 -2.64116211 7.35338867 -3.86914062 7.26757812 C-5.91062111 7.1383705 -7.95546369 7.0648727 -10 7 C-11.27003323 8.05310277 -11.27003323 8.05310277 -11.1875 10.4375 C-11.26839983 13.16734675 -11.26839983 13.16734675 -9 15 C-6.63969304 15.45847689 -4.2601826 15.82143131 -1.875 16.125 C-0.59367187 16.29257812 0.68765625 16.46015625 2.0078125 16.6328125 C2.99523437 16.75398438 3.98265625 16.87515625 5 17 C5 19.31 5 21.62 5 24 C3.9378125 23.86722656 2.875625 23.73445313 1.78125 23.59765625 C1.09546875 23.51193359 0.4096875 23.42621094 -0.296875 23.33789062 C-3.86458333 22.89192708 -7.43229167 22.44596354 -11 22 C-11.76441406 21.90444824 -12.52882813 21.80889648 -13.31640625 21.71044922 C-16.15820312 21.35522461 -16.15820312 21.35522461 -19 21 C-19 19.02 -19 17.04 -19 15 C-18.01 15 -17.02 15 -16 15 C-16.33 14.34 -16.66 13.68 -17 13 C-17.23828125 10.9765625 -17.23828125 10.9765625 -17.3125 8.625 C-17.34988281 7.85414063 -17.38726562 7.08328125 -17.42578125 6.2890625 C-15.81704606 -2.359734 -6.71034321 -0.57005343 0 0 Z " fill="#D70A0A" transform="translate(55,256)"/>
<path d="M0 0 C0 1.98 0 3.96 0 6 C-2.64 6.66 -5.28 7.32 -8 8 C-8.33 9.32 -8.66 10.64 -9 12 C-8.360625 11.67 -7.72125 11.34 -7.0625 11 C-2.98808425 9.66957853 0.75266257 9.33712075 5 10 C7.45875714 12.01171039 7.82902585 13.35029823 8.625 16.375 C7.62510848 20.5745444 4.45031298 22.60862454 1 25 C-2.19447249 26.79953271 -4.3065285 27.29947066 -8 27 C-9 26 -9 26 -9.0625 23.4375 C-9.041875 22.633125 -9.02125 21.82875 -9 21 C-8.36191406 20.89042969 -7.72382813 20.78085938 -7.06640625 20.66796875 C-6.24011719 20.50941406 -5.41382813 20.35085937 -4.5625 20.1875 C-3.73878906 20.03667969 -2.91507813 19.88585937 -2.06640625 19.73046875 C-1.04353516 19.36888672 -1.04353516 19.36888672 0 19 C0.33 18.01 0.66 17.02 1 16 C0.09636719 16.10699219 -0.80726563 16.21398437 -1.73828125 16.32421875 C-2.91777344 16.44410156 -4.09726563 16.56398438 -5.3125 16.6875 C-6.48425781 16.81511719 -7.65601563 16.94273438 -8.86328125 17.07421875 C-12 17 -12 17 -13.8828125 15.73046875 C-15.83333075 12.70921146 -15.53962131 10.47755954 -15 7 C-10.41227227 2.30800573 -6.58625645 -0.36590314 0 0 Z " fill="#D81010" transform="translate(193,59)"/>
<path d="M0 0 C1.32 0.33 2.64 0.66 4 1 C4 4 4 4 3 6 C2.960008 7.99960012 2.95653201 10.00047242 3 12 C5.91646086 9.37518523 7.86643416 6.27146762 10 3 C10.33 2.67 10.66 2.34 11 2 C17.21967963 2.34553776 17.21967963 2.34553776 19.9375 4.625 C21.47956274 8.07196377 21.50106986 10.24197608 21 14 C19.56535792 16.84437718 17.87204116 19.42594341 16 22 C14.35 21.34 12.7 20.68 11 20 C11.7115625 18.9790625 11.7115625 18.9790625 12.4375 17.9375 C14.2225636 14.58158044 14.63153086 11.75838519 15 8 C11.47824791 10.34783473 10.83094929 12.26181186 9 16 C7.75 17.9375 7.75 17.9375 6 19 C2.30625169 18.93404021 -0.06112873 18.78744042 -2.9375 16.375 C-4.45521284 12.98246541 -4.43799353 10.69165978 -4 7 C-2.86220611 4.46828546 -1.52653825 2.3375117 0 0 Z " fill="#D80E0E" transform="translate(46,232)"/>
<path d="M0 0 C3.125 1.5 3.125 1.5 5 3 C4.34 4.65 3.68 6.3 3 8 C2.46375 7.67 1.9275 7.34 1.375 7 C-1.5391061 5.77300796 -3.86867708 5.85766714 -7 6 C-7 6.66 -7 7.32 -7 8 C-6.37351562 8.25394531 -5.74703125 8.50789063 -5.1015625 8.76953125 C-4.28429687 9.11371094 -3.46703125 9.45789062 -2.625 9.8125 C-1.40683594 10.31716797 -1.40683594 10.31716797 -0.1640625 10.83203125 C2 12 2 12 4 15 C4.4787532 18.11189582 4.24714242 19.56455859 2.6875 22.3125 C-1.6218557 25.01837451 -6.05211975 24.6367834 -11 24 C-14.1875 22.5 -14.1875 22.5 -16 21 C-15.67 19.35 -15.34 17.7 -15 16 C-13.66666667 16.33333333 -12.33333333 16.66666667 -11 17 C-10.29359375 17.17660156 -9.5871875 17.35320313 -8.859375 17.53515625 C-6.90625 18.0234375 -4.953125 18.51171875 -3 19 C-3.65801122 15.88550101 -3.65801122 15.88550101 -6.03125 14.90234375 C-6.8459375 14.58394531 -7.660625 14.26554687 -8.5 13.9375 C-12.89753695 12.20492611 -12.89753695 12.20492611 -14 10 C-14.37252607 6.57276017 -14.36781772 4.63532152 -12.625 1.625 C-8.57028652 -0.88506072 -4.64399773 -0.6527105 0 0 Z " fill="#D80D0D" transform="translate(362,33)"/>
<path d="M0 0 C4.09449975 1.01626073 7.08067682 3.77671519 10.171875 6.5390625 C8.796875 8.5390625 8.796875 8.5390625 7.171875 10.5390625 C6.511875 10.5390625 5.851875 10.5390625 5.171875 10.5390625 C4.759375 10.0646875 4.346875 9.5903125 3.921875 9.1015625 C1.51399072 6.95166582 -0.68221084 6.88860852 -3.828125 6.5390625 C-3.085625 7.2815625 -2.343125 8.0240625 -1.578125 8.7890625 C-0.670625 9.6965625 0.236875 10.6040625 1.171875 11.5390625 C1.935 12.1784375 2.698125 12.8178125 3.484375 13.4765625 C5.171875 15.5390625 5.171875 15.5390625 5.609375 18.6015625 C5.11902969 21.89388099 4.75261824 22.57359579 2.171875 24.5390625 C-2.02440128 25.41940018 -6.18299314 25.3761614 -10.0390625 23.4140625 C-11.953125 22.0390625 -11.953125 22.0390625 -14.828125 19.5390625 C-14.498125 18.2190625 -14.168125 16.8990625 -13.828125 15.5390625 C-9.35198706 15.5390625 -9.14339494 16.02749437 -5.828125 18.5390625 C-3.17877678 19.25339371 -3.17877678 19.25339371 -0.828125 19.5390625 C-1.9645955 16.12965099 -2.39409698 15.99657061 -5.328125 14.2890625 C-8.38013317 12.20614558 -8.77198793 11.70747371 -10.015625 7.9765625 C-9.828125 4.5390625 -9.828125 4.5390625 -8.390625 2.1015625 C-5.54745592 0.36792282 -3.33611894 -0.13795981 0 0 Z " fill="#D80C0C" transform="translate(419.828125,49.4609375)"/>
<path d="M0 0 C4.15593654 1.26162359 5.25602556 2.40565276 7.5 6.0625 C9.17417478 9.4945583 9.5 11.14153833 9.5 15.0625 C7.85 15.0625 6.2 15.0625 4.5 15.0625 C4.31824219 14.49660156 4.13648438 13.93070313 3.94921875 13.34765625 C3.69785156 12.61417969 3.44648437 11.88070312 3.1875 11.125 C2.82205078 10.02865234 2.82205078 10.02865234 2.44921875 8.91015625 C1.58759559 6.70317976 1.58759559 6.70317976 -1.5 6.0625 C-1.149375 7.238125 -0.79875 8.41375 -0.4375 9.625 C0.57789876 13.7083536 0.57250121 16.93749536 -0.5 21.0625 C-4.06038041 23.43608694 -5.30896839 23.80209381 -9.5 23.0625 C-12.40724782 20.48500946 -14.76196557 17.53856886 -16.5 14.0625 C-16.54022391 11.7295134 -16.54320247 9.39543334 -16.5 7.0625 C-14.85 7.0625 -13.2 7.0625 -11.5 7.0625 C-11.31824219 7.70058594 -11.13648438 8.33867187 -10.94921875 8.99609375 C-10.69785156 9.82238281 -10.44648437 10.64867187 -10.1875 11.5 C-9.94386719 12.32371094 -9.70023438 13.14742187 -9.44921875 13.99609375 C-8.97935547 15.01896484 -8.97935547 15.01896484 -8.5 16.0625 C-7.51 16.3925 -6.52 16.7225 -5.5 17.0625 C-5.83 16.03125 -6.16 15 -6.5 13.9375 C-7.45050781 10.5280698 -7.97423097 7.6192323 -7.5 4.0625 C-5.24197979 0.53998848 -4.21379569 0.07524635 0 0 Z " fill="#D70B0B" transform="translate(558.5,179.9375)"/>
<path d="M0 0 C1.32 0.66 2.64 1.32 4 2 C3.67 3.98 3.34 5.96 3 8 C4.09445838 8.86657116 5.20097781 9.71792724 6.3125 10.5625 C7.23482422 11.27599609 7.23482422 11.27599609 8.17578125 12.00390625 C8.77777344 12.33261719 9.37976563 12.66132813 10 13 C10.99 12.67 11.98 12.34 13 12 C13.33 11.34 13.66 10.68 14 10 C16.475 10.495 16.475 10.495 19 11 C18.66009204 14.05917167 18.14301602 15.80401508 16.3125 18.3125 C14 20 14 20 11.3125 20.625 C7.08227845 19.82684499 4.59433653 17.84688486 1.24609375 15.21484375 C-0.98692368 13.73018538 -0.98692368 13.73018538 -3.77734375 14.31640625 C-4.51082031 14.54199219 -5.24429688 14.76757812 -6 15 C-8 11.25 -8 11.25 -8 9 C-8.99 8.34 -9.98 7.68 -11 7 C-9.25 2.125 -9.25 2.125 -7 1 C-4.375 2.4375 -4.375 2.4375 -2 4 C-1.34 2.68 -0.68 1.36 0 0 Z " fill="#D70A0A" transform="translate(90,143)"/>
<path d="M0 0 C2.97 0.495 2.97 0.495 6 1 C5.34 2.98 4.68 4.96 4 7 C5.2375 7.33 6.475 7.66 7.75 8 C8.44609375 8.185625 9.1421875 8.37125 9.859375 8.5625 C12.28901861 9.13349349 12.28901861 9.13349349 16 9 C16.33 8.01 16.66 7.02 17 6 C18.65 6 20.3 6 22 6 C22.31424507 9.45669582 22.37956836 11.39901677 20.5 14.375 C16.37675994 17.05510604 12.31896836 16.4653712 7.703125 15.5390625 C5.79049813 15.07107933 3.89328675 14.54093907 2 14 C1.67 14.66 1.34 15.32 1 16 C-0.65 15.67 -2.3 15.34 -4 15 C-4.103125 14.38125 -4.20625 13.7625 -4.3125 13.125 C-4.87525373 10.63473516 -4.87525373 10.63473516 -8 9 C-7.67 7.35 -7.34 5.7 -7 4 C-5.02 3.67 -3.04 3.34 -1 3 C-0.67 2.01 -0.34 1.02 0 0 Z " fill="#D80D0D" transform="translate(51,214)"/>
<path d="M0 0 C2.475 0.99 2.475 0.99 5 2 C4.34 3.98 3.68 5.96 3 8 C3.7425 8.12375 4.485 8.2475 5.25 8.375 C7.81542782 8.95805178 9.67016536 9.83508268 12 11 C12.99 11 13.98 11 15 11 C15.33 10.01 15.66 9.02 16 8 C17.65 8 19.3 8 21 8 C20.51644989 14.40703902 20.51644989 14.40703902 18.3125 16.9375 C14.35812687 18.75437414 11.4871705 18.51427603 7.390625 17.09765625 C4.90428238 16.11084512 2.44589996 15.08276994 0 14 C-0.33 14.66 -0.66 15.32 -1 16 C-3.475 15.01 -3.475 15.01 -6 14 C-5.67 12.68 -5.34 11.36 -5 10 C-6.32 9.67 -7.64 9.34 -9 9 C-8.67 7.02 -8.34 5.04 -8 3 C-5.69 3.33 -3.38 3.66 -1 4 C-0.67 2.68 -0.34 1.36 0 0 Z " fill="#D70808" transform="translate(64,184)"/>
<path d="M0 0 C1.9375 0.8125 1.9375 0.8125 4 2 C5 5 5 5 4.4375 6.9375 C3.8719694 9.60357285 4.61738438 10.72275075 6 13 C3.64561267 14.42944945 2.51967567 15.08661261 -0.25 14.625 C-0.8275 14.41875 -1.405 14.2125 -2 14 C-6.15825278 18.4024476 -6.15825278 18.4024476 -8 24 C-7.01 24.33 -6.02 24.66 -5 25 C-5 26.65 -5 28.3 -5 30 C-8.01799494 29.66466723 -9.80881813 29.13434402 -12.3125 27.375 C-14 25 -14 25 -14.6875 21.8125 C-13.81769523 16.9890372 -11.68208243 14.67838676 -8.43359375 11.11328125 C-6.73292337 9.10680178 -6.73292337 9.10680178 -7.28515625 6.73046875 C-7.52105469 6.15941406 -7.75695312 5.58835937 -8 5 C-5.66785852 3.79371992 -3.50357861 2.8345262 -1 2 C-0.67 1.34 -0.34 0.68 0 0 Z " fill="#D70909" transform="translate(487,84)"/>
<path d="M0 0 C0 1.98 0 3.96 0 6 C-7.22351829 6.96465491 -14.28062068 7.11956114 -21.5625 7.0625 C-22.66658203 7.05798828 -23.77066406 7.05347656 -24.90820312 7.04882812 C-27.605527 7.0371514 -30.30273347 7.02077525 -33 7 C-33 5.02 -33 3.04 -33 1 C-21.9760632 -0.00708069 -11.05994427 -0.10611887 0 0 Z " fill="#D70A0A" transform="translate(603,295)"/>
<path d="M0 0 C1.65 0.66 3.3 1.32 5 2 C4.40540982 6.05285525 3.09571168 8.97929718 1.05859375 12.51953125 C0.47529297 13.54111328 -0.10800781 14.56269531 -0.70898438 15.61523438 C-1.32064453 16.67033203 -1.93230469 17.72542969 -2.5625 18.8125 C-3.17802734 19.88693359 -3.79355469 20.96136719 -4.42773438 22.06835938 C-5.94564344 24.71587518 -7.46989764 27.35951856 -9 30 C-10.98 29.01 -12.96 28.02 -15 27 C-3.52427184 3.52427184 -3.52427184 3.52427184 0 0 Z " fill="#D70808" transform="translate(450,57)"/>
<path d="M0 0 C7.11131264 -0.1391722 14.05382537 0.26507455 21.125 1 C22.55972656 1.14308594 22.55972656 1.14308594 24.0234375 1.2890625 C26.34943754 1.5216625 28.67488959 1.75869679 31 2 C31 3.98 31 5.96 31 8 C23.75317797 8.11168048 16.5458446 7.99567871 9.3125 7.5625 C8.61769531 7.52326416 7.92289063 7.48402832 7.20703125 7.44360352 C2.24618498 7.12309249 2.24618498 7.12309249 0 6 C0 4.02 0 2.04 0 0 Z " fill="#D70808" transform="translate(28,284)"/>
<path d="M0 0 C1.32 0.66 2.64 1.32 4 2 C4 2.99 4 3.98 4 5 C5.98 5.99 7.96 6.98 10 8 C9.34 9.32 8.68 10.64 8 12 C4 12 4 12 1.5703125 11.25390625 C-1.14469888 10.71715584 -1.14469888 10.71715584 -3.5703125 12.65234375 C-4.41335938 13.40644531 -5.25640625 14.16054687 -6.125 14.9375 C-10.71012007 19 -10.71012007 19 -14 19 C-14.66 17.35 -15.32 15.7 -16 14 C-14.08539961 12.22688737 -12.16842507 10.45646638 -10.25 8.6875 C-9.44175781 7.93823242 -9.44175781 7.93823242 -8.6171875 7.17382812 C-5.84396048 4.62043007 -3.07809771 2.18903551 0 0 Z " fill="#D70909" transform="translate(517,119)"/>
<path d="M0 0 C0.33 1.65 0.66 3.3 1 5 C-2.10045423 6.34208754 -5.20592989 7.67213754 -8.3125 9 C-9.19357422 9.3815625 -10.07464844 9.763125 -10.98242188 10.15625 C-11.82998047 10.5171875 -12.67753906 10.878125 -13.55078125 11.25 C-14.33106689 11.58515625 -15.11135254 11.9203125 -15.9152832 12.265625 C-18 13 -18 13 -21 13 C-23 10 -23 10 -23 7 C-19.73540494 5.63042995 -16.46246823 4.28205515 -13.1875 2.9375 C-11.7943457 2.35258789 -11.7943457 2.35258789 -10.37304688 1.75585938 C-9.0340332 1.20961914 -9.0340332 1.20961914 -7.66796875 0.65234375 C-6.84578857 0.31195068 -6.0236084 -0.02844238 -5.17651367 -0.37915039 C-3 -1 -3 -1 0 0 Z " fill="#D80D0D" transform="translate(573,201)"/>
<path d="M0 0 C2.97 0.495 2.97 0.495 6 1 C4.90140175 6.4014414 3.58710504 11.70185146 2.0625 17 C1.74410156 18.11375 1.42570312 19.2275 1.09765625 20.375 C0.73542969 21.24125 0.37320312 22.1075 0 23 C-3 24 -3 24 -5.1875 23.0625 C-6.0846875 22.5365625 -6.0846875 22.5365625 -7 22 C-6.5079597 17.96526955 -5.51436911 14.64148336 -3.83203125 10.9453125 C-2.30954045 7.38568611 -1.17821699 3.68506166 0 0 Z " fill="#D80D0D" transform="translate(402,45)"/>
<path d="M0 0 C2.26454359 2.39520634 4.15606037 5.10951948 6.125 7.75 C6.68832031 8.47960937 7.25164062 9.20921875 7.83203125 9.9609375 C8.63060547 11.02441406 8.63060547 11.02441406 9.4453125 12.109375 C9.93531738 12.75874023 10.42532227 13.40810547 10.93017578 14.07714844 C12 16 12 16 12 20 C10.02 20.99 10.02 20.99 8 22 C3.12897384 16.13142165 -1.67168709 10.28303486 -6 4 C-2.25 0 -2.25 0 0 0 Z " fill="#D70A0A" transform="translate(147,87)"/>
<path d="M0 0 C7.18216433 2.27435204 14.0758202 5.03584181 21 8 C20.67 9.98 20.34 11.96 20 14 C15.06678166 13.29807915 10.74025318 11.36469225 6.1875 9.4375 C5.39923828 9.10814453 4.61097656 8.77878906 3.79882812 8.43945312 C1.86416204 7.63041094 -0.06815753 6.81576148 -2 6 C-1.125 1.125 -1.125 1.125 0 0 Z " fill="#D70B0B" transform="translate(56,202)"/>
<path d="M0 0 C1.98 0 3.96 0 6 0 C6.1567564 7.71589817 5.67453101 15.31516461 5 23 C1.86650268 24.04449911 1.01031744 23.93423645 -2 23 C-1.03644647 7.25512528 -1.03644647 7.25512528 0 0 Z " fill="#D70909" transform="translate(337,31)"/>
<path d="M0 0 C1.41441874 2.82883747 1.31900332 4.87376745 1 8 C-0.5625 9.9375 -0.5625 9.9375 -3 11 C-6.625 10.875 -6.625 10.875 -10 10 C-12 7 -12 7 -11.875 4.5 C-11 2 -11 2 -9.375 0.125 C-5.95997553 -1.49264317 -3.59938722 -0.88286856 0 0 Z " fill="#FCEDED" transform="translate(574,221)"/>
<path d="M0 0 C3.0625 0.3125 3.0625 0.3125 4.875 1.5 C6.40068682 3.82867989 6.85927533 5.5350962 7.0625 8.3125 C6.5 10.5625 6.5 10.5625 5.0625 12.3125 C1.9375 13.0625 1.9375 13.0625 -0.9375 13.3125 C-3.5558364 10.53051758 -4.85949358 8.97555455 -5.3125 5.125 C-4.78680999 1.18232491 -3.95015562 0.42022932 0 0 Z " fill="#FDF3F3" transform="translate(220.9375,51.6875)"/>
<path d="M0 0 C1.79133978 -0.05391993 3.58313899 -0.09275571 5.375 -0.125 C6.37273437 -0.14820313 7.37046875 -0.17140625 8.3984375 -0.1953125 C11 0 11 0 13 2 C12.44444444 6.55555556 12.44444444 6.55555556 11 8 C9.14712498 8.07226502 7.29166122 8.0838122 5.4375 8.0625 C4.42558594 8.05347656 3.41367187 8.04445313 2.37109375 8.03515625 C1.58863281 8.02355469 0.80617188 8.01195312 0 8 C0 5.36 0 2.72 0 0 Z " fill="#FBECEC" transform="translate(312,40)"/>
<path d="M0 0 C1.62463842 -0.05395478 3.24978541 -0.09277195 4.875 -0.125 C5.77992188 -0.14820312 6.68484375 -0.17140625 7.6171875 -0.1953125 C10 0 10 0 12 2 C11.46428571 5.53571429 11.46428571 5.53571429 10 7 C8.31391034 7.07205511 6.62499341 7.08386068 4.9375 7.0625 C4.01839844 7.05347656 3.09929687 7.04445313 2.15234375 7.03515625 C1.44207031 7.02355469 0.73179687 7.01195312 0 7 C0 4.69 0 2.38 0 0 Z " fill="#FDF4F4" transform="translate(312,28)"/>
<path d="M0 0 C2.625 0.375 2.625 0.375 5 1 C5.625 3.375 5.625 3.375 6 6 C5.34 6.66 4.68 7.32 4 8 C1.375 7.625 1.375 7.625 -1 7 C-1.625 4.625 -1.625 4.625 -2 2 C-1.34 1.34 -0.68 0.68 0 0 Z " fill="#D91717" transform="translate(46,198)"/>
<path d="M0 0 C2.625 0.375 2.625 0.375 5 1 C5.625 3.375 5.625 3.375 6 6 C5.34 6.66 4.68 7.32 4 8 C1.375 7.625 1.375 7.625 -1 7 C-1.625 4.625 -1.625 4.625 -2 2 C-1.34 1.34 -0.68 0.68 0 0 Z " fill="#D91616" transform="translate(137,79)"/>
<path d="M0 0 C2.625 0.375 2.625 0.375 5 1 C5.625 3.375 5.625 3.375 6 6 C5.34 6.66 4.68 7.32 4 8 C1.375 7.625 1.375 7.625 -1 7 C-1.625 4.625 -1.625 4.625 -2 2 C-1.34 1.34 -0.68 0.68 0 0 Z " fill="#D91616" transform="translate(406,35)"/>
<path d="M0 0 C2.625 0.375 2.625 0.375 5 1 C5.625 3.375 5.625 3.375 6 6 C5.34 6.66 4.68 7.32 4 8 C1.375 7.625 1.375 7.625 -1 7 C-1.625 4.625 -1.625 4.625 -2 2 C-1.34 1.34 -0.68 0.68 0 0 Z " fill="#D91616" transform="translate(339,20)"/>
<path d="M0 0 C2.5 0.125 2.5 0.125 3.5 1.125 C3.54080783 3.12458364 3.54254356 5.12545254 3.5 7.125 C1.125 7.75 1.125 7.75 -1.5 8.125 C-3.5 6.125 -3.5 6.125 -3.6875 3.5625 C-3.4324847 0.24730106 -3.33009823 0.16650491 0 0 Z " fill="#D81111" transform="translate(579.5,195.875)"/>
<path d="M0 0 C2.3129482 2.3129482 2.49580975 3.47904875 3.125 6.625 C3.29257812 7.44226563 3.46015625 8.25953125 3.6328125 9.1015625 C3.81457031 10.04128906 3.81457031 10.04128906 4 11 C1.36 10.67 -1.28 10.34 -4 10 C-2.8905928 6.51329166 -1.73662334 3.22515763 0 0 Z " fill="#FBE6E6" transform="translate(404,589)"/>
<path d="M0 0 C5.41139241 -0.36075949 5.41139241 -0.36075949 7.9375 1.1875 C9 3 9 3 8.6875 5.6875 C8.460625 6.450625 8.23375 7.21375 8 8 C4.63820226 6.55922954 2.40843732 4.75249979 0 2 C0 1.34 0 0.68 0 0 Z " fill="#FAE3E3" transform="translate(496,108)"/>
<path d="M0 0 C2.92509086 3.90012114 3.47535095 5.38308839 4 10 C1.69 10 -0.62 10 -3 10 C-2.01 6.7 -1.02 3.4 0 0 Z " fill="#FCF2F2" transform="translate(309,586)"/>
<path d="M0 0 C3.69230769 0.69230769 3.69230769 0.69230769 5 2 C5.04080783 3.99958364 5.04254356 6.00045254 5 8 C0.125 7.125 0.125 7.125 -1 6 C-1.125 3.5 -1.125 3.5 -1 1 C-0.67 0.67 -0.34 0.34 0 0 Z " fill="#FCECEC" transform="translate(574,276)"/>
<path d="M0 0 C2.375 0.1875 2.375 0.1875 5 1 C6.3125 3.5625 6.3125 3.5625 7 6 C4.625 6.625 4.625 6.625 2 7 C0 5 0 5 -0.125 2.375 C-0.08375 1.59125 -0.0425 0.8075 0 0 Z " fill="#FCF0F0" transform="translate(536,169)"/>
<path d="M0 0 C0.66 0.33 1.32 0.66 2 1 C2.125 3.375 2.125 3.375 2 6 C1.34 6.66 0.68 7.32 0 8 C-2.625 7.625 -2.625 7.625 -5 7 C-3.75023244 3.34683329 -3.32901247 2.21934164 0 0 Z " fill="#FCEEEE" transform="translate(139,109)"/>
<path d="M0 0 C1.2065625 0.0309375 1.2065625 0.0309375 2.4375 0.0625 C2.480221 1.72861905 2.47813832 3.39632885 2.4375 5.0625 C1.4375 6.0625 1.4375 6.0625 -1.625 6.125 C-3.0790625 6.0940625 -3.0790625 6.0940625 -4.5625 6.0625 C-3.48963568 0.08511307 -3.48963568 0.08511307 0 0 Z " fill="#FCEDED" transform="translate(249.5625,50.9375)"/>
<path d="M0 0 C0.33 0 0.66 0 1 0 C2.12862175 5.36095333 2.09688221 10.55306686 2 16 C0.25054234 12.92952329 -0.36795239 10.38478525 -0.6875 6.875 C-0.81705078 5.57175781 -0.81705078 5.57175781 -0.94921875 4.2421875 C-1 2 -1 2 0 0 Z " fill="#F3B6B6" transform="translate(301,389)"/>
<path d="M0 0 C1.96035175 0.44962196 3.91824309 0.90998248 5.875 1.375 C7.51082031 1.75785156 7.51082031 1.75785156 9.1796875 2.1484375 C12 3 12 3 14 5 C9.03083364 4.48594831 4.70973649 3.76615118 0 2 C0 1.34 0 0.68 0 0 Z " fill="#464646" transform="translate(268,565)"/>
<path d="M0 0 C0.66 0.33 1.32 0.66 2 1 C2 1.66 2 2.32 2 3 C0.54618103 3.69699552 -0.91322953 4.38233866 -2.375 5.0625 C-3.18710937 5.44535156 -3.99921875 5.82820313 -4.8359375 6.22265625 C-5.55007813 6.47917969 -6.26421875 6.73570312 -7 7 C-7.66 6.67 -8.32 6.34 -9 6 C-6.03 4.02 -3.06 2.04 0 0 Z " fill="#232323" transform="translate(412,325)"/>
</svg>
